<svg width="27" height="25" viewBox="0 0 27 25" fill="none" xmlns="http://www.w3.org/2000/svg">
<g clip-path="url(#clip0_90_158)">
<path d="M26.9308 6.42792C26.8752 6.00064 26.7543 5.64127 26.5696 5.34995C26.1435 4.64043 25.4587 4.48602 24.5142 4.88606C24.5325 4.84946 23.9866 5.15881 23.9866 5.15881C23.9866 5.15881 23.0789 5.72287 22.0424 6.19571C21.3016 6.57772 20.5703 6.96921 19.8478 7.36939C19.3389 7.63807 17.8199 8.24361 17.6158 8.29824C17.9563 7.72618 18.4129 7.08037 18.9869 6.3596C20.2274 4.7768 20.9678 3.76701 21.2091 3.33024C21.4496 2.8936 21.6088 2.59211 21.6535 2.41575C21.8813 1.51888 21.5445 1.04944 21.2643 0.710131C20.9971 0.386549 20.579 0.0372102 19.6534 0.000608919C18.7462 -0.0174206 18.0609 0.164501 17.598 0.54651C15.4131 2.20211 13.9501 4.06714 13.2097 6.14121C12.9689 6.77794 12.7653 7.43324 12.5985 8.10616C12.4873 7.14205 11.8393 6.22309 10.6543 5.34968C9.69104 4.64015 8.81856 4.07812 7.82991 3.67903C6.82994 3.2752 5.40546 2.85808 4.27968 2.82528C3.20645 2.7941 3.15899 3.96168 3.26578 4.72203C3.30951 5.03355 3.58103 5.66811 4.37708 6.63235C4.72916 7.05136 5.11298 7.49668 5.52977 7.96992C5.94615 8.44316 6.33962 8.91599 6.71005 9.38883C7.1227 9.90653 7.45313 10.4722 7.69167 10.9369C7.47782 10.9914 7.28247 11.0395 7.1107 11.0797C6.56464 11.2067 6.03237 11.3344 5.51363 11.4617C4.31031 11.7706 3.29144 12.1346 2.45827 12.5532C1.60704 12.8987 0.000305176 14.4311 0.000305176 17.3021C0.000305176 17.7205 0.0141016 18.1434 0.0697011 18.5711C0.125301 18.9984 0.246157 19.3578 0.430891 19.6491C0.856925 20.3586 1.54178 20.513 2.48628 20.113C2.46793 20.1496 3.01386 19.8402 3.01386 19.8402C3.01386 19.8402 3.92152 19.2762 4.95805 18.8033C5.69891 18.4213 6.43012 18.0298 7.15264 17.6297C7.66159 17.361 9.18058 16.7556 9.38463 16.7008C9.04413 17.2729 8.58761 17.9187 8.01354 18.6394C6.7731 20.2222 6.03265 21.232 5.79135 21.6687C5.55088 22.1053 5.39167 22.4068 5.34697 22.5832C5.11919 23.48 5.45596 23.9495 5.73616 24.2888C6.0034 24.6124 6.42143 24.9617 7.34703 24.9983C8.25429 25.0163 8.93955 24.8344 9.40242 24.4524C11.5874 22.7968 13.0503 20.9318 13.7908 18.8576C14.0315 18.2208 14.2352 17.5655 14.402 16.8926C14.5132 17.8569 15.1612 18.7757 16.3462 19.6491C17.3094 20.3586 18.1819 20.9205 19.1706 21.3197C20.1705 21.7236 21.595 22.1407 22.7208 22.1735C23.794 22.2047 23.8415 21.0371 23.7347 20.2767C23.691 19.9652 23.4194 19.3307 22.6234 18.3664C22.2713 17.9474 21.8875 17.5021 21.4707 17.0289C21.0543 16.5556 20.6608 16.0828 20.2904 15.61C19.8776 15.0921 19.5473 14.5266 19.3088 14.0619C19.5226 14.0074 19.718 13.9592 19.8898 13.9191C20.4358 13.7921 20.9681 13.6644 21.4868 13.5371C22.6902 13.2282 23.709 12.8642 24.5422 12.4456C25.3934 12.1 27.0002 10.5677 27.0002 7.69663C27.0002 7.27829 26.9864 6.85534 26.9308 6.42765V6.42792Z" fill="#47B490"/>
</g>
<defs>
<clipPath id="clip0_90_158">
<rect width="27" height="25" fill="white"/>
</clipPath>
</defs>
</svg>
