<svg width="1440" height="293" viewBox="0 0 1440 293" fill="none" xmlns="http://www.w3.org/2000/svg">
<g clip-path="url(#clip0_90_145)">
<path d="M160.733 78.829C176.417 64.2496 166.985 37.4683 149.651 28.7855C158.035 7.85914 127.209 -12.6547 117.7 9.6874C85.1437 -0.000762476 77.9976 26.7049 77.1098 33.0868C75.8143 42.3906 58.2219 32.2914 54.5365 44.7435C52.0746 53.0679 54.5132 64.0575 58.7423 71.1435C42.5709 77.3851 47.7862 106.7 58.6995 115.731C49.4565 127.547 63.0083 145.678 77.7557 143.816C76.494 155.691 88.8554 165.194 98.7901 164.775C100.854 189.895 101.059 220.85 92.0248 240.035C92.0248 240.035 101.003 252.097 118.921 252.083C130.439 252.074 138.875 238.582 138.875 238.582C134.663 227.759 125.713 210.863 123.674 198.364C122.102 188.727 122.764 178.467 122.764 168.595C122.764 168.369 122.769 168.114 122.772 167.869C131.688 171.837 143.732 167.791 143.423 151.581C144.609 152.5 148.61 154.994 150.267 154.965C167.555 154.67 164.907 136.358 161.125 125.02C179.343 120.107 172.792 87.5296 160.733 78.829Z" fill="#261010"/>
<path d="M1300.17 96.7651C1313.64 84.2492 1305.54 61.2579 1290.66 53.8046C1297.86 35.8403 1271.39 18.2299 1263.23 37.4096C1235.28 29.0927 1229.15 52.0179 1228.39 57.4968C1227.27 65.4836 1212.17 56.8142 1209.01 67.5033C1206.89 74.6494 1208.99 84.0838 1212.62 90.1674C1198.73 95.5253 1203.21 120.691 1212.58 128.444C1204.65 138.587 1216.28 154.153 1228.94 152.555C1227.86 162.749 1238.47 170.907 1247 170.547C1248.77 192.112 1248.94 218.686 1241.19 235.155C1241.19 235.155 1248.9 245.51 1264.28 245.498C1274.17 245.49 1281.41 233.908 1281.41 233.908C1277.79 224.616 1270.11 210.112 1268.36 199.382C1267.01 191.109 1267.58 182.302 1267.58 173.826C1267.58 173.632 1267.58 173.413 1267.58 173.203C1275.24 176.61 1285.58 173.136 1285.31 159.221C1286.33 160.01 1289.77 162.151 1291.19 162.126C1306.03 161.873 1303.75 146.153 1300.51 136.419C1316.15 132.202 1310.52 104.235 1300.17 96.7659L1300.17 96.7651Z" fill="#261010"/>
<path d="M278.092 124.651C276.078 114.707 267.785 105.183 260.775 98.0347C256.767 93.9486 251.828 87.7032 246.718 85.1033C241.434 82.4151 234.44 82.4796 228.563 82.0938C220.226 81.5469 217.872 83.275 211.347 89.1108C196.256 102.612 189.677 127.127 188.792 146.688C188.097 162.086 192.657 174.287 199.249 187.817C202.763 195.029 206.666 204.374 215.216 206.921C216.383 207.268 218.586 208.006 221.313 208.907C220.352 218.602 216.94 230.351 217.351 237.903C226.14 239.173 235.395 239.422 244.468 238.907C245.34 232.983 245.807 227.242 245.637 221.048C245.586 219.186 245.556 217.302 245.517 215.413C245.709 215.42 245.894 215.424 246.063 215.42C253.943 215.222 262.673 212.746 269.189 208.645C276.659 203.945 275.937 193.249 277.177 185.428C280.106 166.953 281.797 142.932 278.092 124.651V124.651Z" fill="#261010"/>
<path d="M1113.62 122.788C1113.61 122.767 1113.6 122.746 1113.58 122.726C1113.55 122.677 1113.52 122.628 1113.49 122.58C1113.48 122.553 1113.46 122.526 1113.44 122.5C1113.37 122.399 1113.31 122.299 1113.23 122.201C1113.23 122.195 1113.23 122.188 1113.22 122.181C1113.19 122.136 1113.15 122.092 1113.12 122.048C1113.1 122.021 1113.07 121.994 1113.05 121.968C1113.02 121.925 1112.98 121.882 1112.95 121.84C1112.93 121.814 1112.9 121.789 1112.88 121.763C1112.82 121.694 1112.76 121.626 1112.7 121.559C1112.67 121.531 1112.64 121.503 1112.61 121.476C1112.58 121.439 1112.54 121.402 1112.5 121.367C1112.47 121.333 1112.44 121.301 1112.4 121.268C1112.35 121.217 1112.29 121.167 1112.23 121.118C1112.2 121.088 1112.16 121.059 1112.13 121.029C1112.09 120.999 1112.06 120.969 1112.02 120.939C1111.98 120.905 1111.93 120.872 1111.89 120.839C1111.84 120.801 1111.79 120.764 1111.74 120.728C1111.69 120.695 1111.65 120.662 1111.6 120.631C1111.57 120.608 1111.53 120.584 1111.5 120.56C1111.45 120.527 1111.4 120.496 1111.35 120.465C1111.31 120.441 1111.27 120.418 1111.23 120.395C1111.17 120.358 1111.1 120.321 1111.04 120.286C1111.01 120.268 1110.97 120.251 1110.94 120.233C1110.88 120.203 1110.82 120.174 1110.77 120.146C1110.74 120.133 1110.71 120.119 1110.68 120.105C1110.6 120.067 1110.52 120.031 1110.44 119.996C1110.41 119.983 1110.38 119.971 1110.35 119.958C1110.28 119.932 1110.22 119.907 1110.16 119.883C1110.13 119.873 1110.1 119.863 1110.07 119.853C1109.99 119.822 1109.9 119.793 1109.81 119.765C1109.78 119.757 1109.76 119.75 1109.73 119.742C1109.66 119.721 1109.59 119.701 1109.52 119.681C1109.49 119.674 1109.46 119.667 1109.43 119.66C1109.34 119.637 1109.25 119.615 1109.16 119.596C1109.13 119.592 1109.11 119.588 1109.09 119.584C1109.01 119.568 1108.93 119.555 1108.85 119.542C1108.83 119.538 1108.8 119.533 1108.77 119.529C1108.67 119.515 1108.57 119.502 1108.48 119.492C1108.46 119.49 1108.45 119.489 1108.43 119.488C1108.35 119.48 1108.26 119.473 1108.17 119.468C1108.14 119.466 1108.11 119.465 1108.08 119.463C1107.98 119.459 1107.88 119.456 1107.78 119.456C1107.78 119.456 1107.78 119.456 1107.78 119.456H951.328C951.322 119.456 951.317 119.456 951.312 119.456C951.231 119.456 951.15 119.458 951.069 119.461C951.038 119.463 951.007 119.464 950.977 119.466C950.921 119.469 950.866 119.472 950.81 119.476C950.776 119.479 950.74 119.482 950.706 119.485C950.655 119.489 950.604 119.495 950.553 119.5C950.532 119.503 950.51 119.504 950.489 119.507C950.474 119.509 950.46 119.512 950.445 119.513C950.395 119.52 950.345 119.527 950.294 119.535C950.26 119.54 950.224 119.545 950.19 119.551C950.13 119.561 950.07 119.572 950.011 119.584C949.952 119.595 949.895 119.608 949.837 119.621C949.796 119.63 949.755 119.639 949.714 119.65C949.668 119.661 949.621 119.673 949.576 119.686C949.543 119.695 949.511 119.703 949.479 119.712C949.429 119.726 949.379 119.741 949.33 119.756C949.304 119.764 949.278 119.772 949.252 119.78C949.198 119.797 949.144 119.815 949.09 119.834C949.077 119.838 949.063 119.843 949.05 119.848C948.146 120.169 947.325 120.674 946.64 121.327L946.639 121.328C946.516 121.445 946.397 121.568 946.283 121.695C946.218 121.767 946.154 121.841 946.092 121.916C945.522 122.608 945.087 123.42 944.831 124.317L928.06 172.372L903.054 186.317C899.754 188.158 897.713 191.611 897.713 195.355V228.843L919.911 228.931C919.91 228.934 919.909 228.939 919.909 228.943H922.956C922.712 229.969 922.555 231.03 922.49 232.114C922.489 232.132 922.488 232.149 922.486 232.166C922.477 232.317 922.471 232.468 922.466 232.62C922.464 232.653 922.463 232.686 922.462 232.719C922.457 232.896 922.454 233.073 922.454 233.251C922.454 236.83 923.463 240.176 925.216 243.026C928.563 248.468 934.619 252.102 941.535 252.102C949.503 252.102 956.329 247.277 959.185 240.423C959.752 239.062 960.164 237.622 960.396 236.122C960.396 236.119 960.397 236.116 960.398 236.114C960.542 235.18 960.617 234.225 960.617 233.251C960.617 233.073 960.614 232.896 960.608 232.719C960.608 232.686 960.605 232.653 960.605 232.62C960.599 232.468 960.593 232.317 960.584 232.167C960.583 232.149 960.582 232.132 960.58 232.113C960.515 231.029 960.357 229.969 960.115 228.943H963.162H1058.98H1062.03C1061.79 229.969 1061.63 231.029 1061.56 232.113C1061.56 232.131 1061.56 232.149 1061.56 232.167C1061.55 232.318 1061.55 232.468 1061.54 232.62C1061.54 232.653 1061.54 232.686 1061.54 232.719C1061.53 232.896 1061.53 233.073 1061.53 233.251C1061.53 236.831 1062.54 240.176 1064.29 243.027C1067.64 248.469 1073.69 252.103 1080.61 252.103C1086.37 252.103 1091.54 249.579 1095.04 245.588C1095.24 245.361 1095.43 245.128 1095.62 244.89C1098.17 241.685 1099.69 237.644 1099.69 233.252C1099.69 233.073 1099.69 232.896 1099.68 232.719C1099.68 232.686 1099.68 232.653 1099.68 232.62C1099.67 232.468 1099.67 232.317 1099.66 232.167C1099.66 232.149 1099.66 232.132 1099.65 232.113C1099.59 231.029 1099.43 229.969 1099.19 228.943H1102.24H1114.53V191.053V190.404V128.516V126.123C1114.53 124.907 1114.19 123.769 1113.62 122.787L1113.62 122.788Z" fill="#261010"/>
<path d="M1423.4 159.23C1423.58 159.364 1424.87 157.924 1425.11 157.713C1433.29 150.52 1448.3 145.176 1458.35 151.543C1465.33 155.968 1466.04 164.577 1464.37 171.955C1465.22 171.727 1466 171.303 1466.85 171.075C1474.54 169.035 1478.51 175.817 1479.67 182.235C1481.09 190.131 1479 200.501 1471.02 204.214L1470.75 210.982C1471.53 210.125 1472.1 209.036 1472.79 208.087C1474.82 205.3 1479.66 199.261 1483.61 200.4C1487.28 201.457 1486.15 206.115 1485.41 208.801C1484.67 211.487 1483.43 214.008 1482.65 216.68C1484.84 215.152 1487.34 213.963 1489.99 213.445C1494.72 212.519 1498.31 213.627 1496.97 219.129C1495.17 226.492 1488.21 225.63 1482.1 226.135C1479.13 226.38 1476.52 226.682 1473.52 226.734C1465.08 226.879 1456.7 226.275 1448.26 226.372C1447.65 227.453 1446.91 228.428 1445.89 229.144C1440.05 233.223 1429 229.574 1423.53 226.063C1423.02 225.739 1422.59 225.318 1422.05 225.043C1422.02 231.844 1413.75 231.746 1409.6 228.434C1409.05 227.997 1408.73 227.289 1408.01 227.217C1406.95 227.113 1406.84 227.559 1406.06 227.972C1399.67 231.33 1391.95 230.812 1385.25 228.613C1381.01 227.225 1371.39 222.583 1374.98 216.906L1375.98 215.587C1374.85 215.865 1373.69 215.787 1372.54 215.826C1372.25 215.835 1371.98 215.952 1371.69 215.957C1370.9 215.971 1370.16 215.814 1369.41 215.89C1364.85 224.022 1354.31 231.977 1344.94 225.899C1341.78 227.508 1338.73 228.9 1335.13 229.284C1326.56 230.194 1314.36 225.187 1310.96 216.92C1307.68 208.952 1315.86 206.011 1322.31 205.528C1321.04 204.203 1319.85 202.811 1318.77 201.326C1313.63 194.226 1312.49 185.128 1316.28 177.086C1319.58 170.06 1326.76 164.483 1334.37 169.797C1337.66 172.092 1339.68 175.654 1341.51 179.105C1342.67 177.589 1343.88 176.128 1345.36 174.904C1343.31 164.055 1352.63 156.393 1363.1 157.049C1367.26 157.31 1371.36 159.118 1374.73 161.433C1375.01 161.622 1376.36 162.787 1376.53 162.623C1378.19 155.611 1382.3 148.903 1388.34 144.779C1396.31 139.343 1406.64 139.021 1414.37 145.054C1418.9 148.584 1421.84 153.797 1423.4 159.229L1423.4 159.23Z" fill="#261010"/>
<path d="M1441 211.208C1285.53 211.208 1186.03 252.202 955.931 252.202C725.835 252.202 608.921 227.025 371.362 227.025C133.803 227.025 -1 257.753 -1 257.753V293H1441V211.208Z" fill="#261010"/>
</g>
<defs>
<clipPath id="clip0_90_145">
<rect width="1442" height="293" fill="white" transform="translate(-1)"/>
</clipPath>
</defs>
</svg>
