<?xml version="1.0" encoding="UTF-8"?>
<svg id="Layer_2" data-name="Layer 2" xmlns="http://www.w3.org/2000/svg" viewBox="0 0 458.23 458.23">
  <defs>
    <style>
      .cls-1 {
        fill: #fff;
      }
    </style>
  </defs>
  <g id="Logo">
    <g>
      <path class="cls-1" d="M88.71,166.01c11.69-2.92,23.69-5.85,36-8.76,12.32-2.93,29.42-7.51,51.34-13.78,21.91-6.26,49.56-13.77,82.95-22.53,33.4-8.76,72.22-19.21,116.46-31.31,35.58-10.13,63.16-16.73,82.78-19.81v-29.8c0-22.1-17.91-40.01-40.01-40.01h-142.22c7.18,7.85,11.55,16.47,12.97,25.88,2.04,13.47-2.66,27.26-14.13,41.35-11.45,14.11-29.77,25.31-55.35,25.08-28.28-.25-47.62-11.95-58.65-25.74-11.01-13.77-14.01-27.86-12.97-42.71.67-9.49,3-17.44,7.85-23.87H40.01C17.91,0,0,17.91,0,40.01v165.04c7.18-7.04,14.23-11.69,19.83-14.01,18.78-9.6,41.75-17.95,68.87-25.04Z"/>
      <path class="cls-1" d="M84.95,421.14c1.01-4.04,4.6-10.96,10.02-20.98,5.44-10.02,22.13-33.18,50.09-69.49,15.03-19.21,26.51-36.1,34.44-50.71-7.93,3.34-25.88,12.52-53.84,27.55-16.28,9.18-32.77,18.16-49.47,26.92-23.36,10.85-43.82,23.79-43.82,23.79,0,0-12.31,7.1-11.89,6.26-7.56,3.26-14.38,4.88-20.46,4.93v48.81c0,22.1,17.91,40.01,40.01,40.01h52.1c-5.89-7.63-11.87-18.24-7.16-37.09Z"/>
      <path class="cls-1" d="M332.88,353.83c-26.71-20.04-41.32-41.12-43.82-63.24-3.76,15.44-8.35,30.47-13.78,45.08-15.85,45.18-46.41,86.03-91.62,122.56h234.57c22.1,0,40.01-17.91,40.01-40.01v-8.29c-21.27-3.33-44.32-10.63-61.69-17.77-22.29-9.16-41.95-22.05-63.67-38.33Z"/>
      <path class="cls-1" d="M418.03,192.3l-28.17,11.27c.84,2.51,12.32,32.56,31.93,57.6,8.35,10.85,17.22,21.7,26.61,32.55,3.39,3.92,6.65,7.72,9.84,11.47v-129.41c-14.02,5.59-27.44,11.1-40.21,16.52Z"/>
    </g>
  </g>
</svg>