<?xml version="1.0" encoding="UTF-8"?>
<svg xmlns="http://www.w3.org/2000/svg" viewBox="0 0 1920 1080">
  <defs>
    <style>
      .cls-1 {
        fill: #f8ffe0;
      }

      .cls-2 {
        fill: #331516;
      }

      .cls-3 {
        fill: #47b490;
      }
    </style>
  </defs>
  <g id="BG">
    <rect class="cls-1" width="1920" height="1077.8"/>
  </g>
  <g id="Logo">
    <g>
      <g>
        <g>
          <path class="cls-2" d="M700.56,424.57c2.51-6.08,13.64-17.54,34.49-17.54,3.04,0,6.11.1,9.22.5,3.1.4,5.71,1.26,7.83,2.58,5.15,3.04,6.57,8.06,3.37,14.67-5.57,11.49-25.7,47.84-26.76,50.35,4.62-2.51,9.97-6.14,16.06-10.9,11.5-8.85,18.83-14.14,22-15.86,3.17-1.72,5.36-2.85,6.64-3.17,6.51-1.63,9.92.78,12.39,2.78,2.35,1.91,4.89,4.89,5.15,11.5.13,6.47-1.19,11.36-3.97,14.67-12.02,15.59-25.57,26.03-40.64,31.32-4.62,1.72-9.38,3.17-14.27,4.36,7,.79,13.68,5.42,20.02,13.87,5.15,6.87,9.23,13.1,12.13,20.16s5.96,17.3,6.2,25.34c.23,7.66-8.25,8-13.78,7.24-2.26-.31-6.87-2.25-13.87-7.93-3.04-2.51-6.28-5.25-9.71-8.23-3.44-2.97-6.87-5.78-10.31-8.42-7.93-6.21-17.44-9.84-18.24-10.11l-3.57,8.92c-1.85,4.36-3.74,8.95-5.65,13.78-1.92,4.82-3.53,9.71-6.84,12.99-3.51,3.49-8.86,3.89-14.27,3.37-6.21-.66-10.31-3.17-12.29-7.53-1.32-4.1.86-16.12,6.54-36.08,3.83-14.01,7.14-26.3,9.91-36.87,2.77-10.57,5.15-19.33,7.13-26.26,1.98-6.94,3.43-12.36,4.36-16.26.92-3.9,1.85-7.7,2.77-11.4,2.24-8.59,4.89-15.86,7.93-21.8Z"/>
          <path class="cls-2" d="M1195.51,424.57c2.51-6.08,13.64-17.54,34.49-17.54,3.04,0,6.11.1,9.22.5,3.1.4,5.71,1.26,7.83,2.58,5.15,3.04,6.57,8.06,3.37,14.67-5.57,11.49-25.7,47.84-26.76,50.35,4.62-2.51,9.97-6.14,16.06-10.9,11.5-8.85,18.83-14.14,22-15.86,3.17-1.72,5.36-2.85,6.64-3.17,6.51-1.63,9.92.78,12.39,2.78,2.35,1.91,4.89,4.89,5.15,11.5.13,6.47-1.19,11.36-3.97,14.67-12.02,15.59-25.57,26.03-40.64,31.32-4.62,1.72-9.38,3.17-14.27,4.36,7,.79,13.68,5.42,20.02,13.87,5.15,6.87,9.23,13.1,12.13,20.16s5.96,17.3,6.2,25.34c.23,7.66-8.25,8-13.78,7.24-2.26-.31-6.87-2.25-13.87-7.93-3.04-2.51-6.28-5.25-9.71-8.23-3.44-2.97-6.87-5.78-10.31-8.42-7.93-6.21-17.44-9.84-18.24-10.11l-3.57,8.92c-1.85,4.36-3.74,8.95-5.65,13.78-1.92,4.82-3.53,9.71-6.84,12.99-3.51,3.49-8.86,3.89-14.27,3.37-6.21-.66-10.31-3.17-12.29-7.53-1.32-4.1.86-16.12,6.54-36.08,3.83-14.01,7.14-26.3,9.91-36.87,2.77-10.57,5.15-19.33,7.13-26.26,1.98-6.94,3.43-12.36,4.36-16.26.92-3.9,1.85-7.7,2.77-11.4,2.24-8.59,4.89-15.86,7.93-21.8Z"/>
          <path class="cls-2" d="M823.47,557.58c-.86,2.77-1.82,5.22-2.87,7.33-1.06,2.11-2.65,4.1-4.76,5.95-2.12,1.85-4.63,3.6-7.53,5.25-2.91,1.65-5.68,2.8-8.32,3.47-6.08,1.32-10.88-1.3-14.62-3.97-5.02-3.58-4.57-9.22-3.22-14.46,1.89-7.33,4.43-16.09,6.94-26.46,2.51-10.37,5.75-21.77,9.71-34.19,9.38-30.13,21.01-57.28,34.89-81.47.92-1.19,1.98-2.74,3.17-4.66,1.19-1.91,2.71-3.67,4.56-5.25,4.62-4.23,10.46-5.62,17.05-2.97,12.08,4.85,9.79,15.32,8.52,18.24-14.82,34.22-26.63,70.24-37.86,111.2-1.32,4.76-2.38,8.92-3.17,12.49-.79,3.57-1.62,6.74-2.48,9.51Z"/>
          <path class="cls-2" d="M864.09,479.48c2.16-4.16,5.81-7.33,12.29-8.92,6.08-1.58,11.76-1.39,17.05.59,5.42,2.12,8.32,5.62,7.33,10.31-1,4.75-3.27,10.28-5.45,16.95-2.18,6.67-4.26,13.51-6.24,20.52-5.29,17.97-8.33,30.66-9.12,38.06-1.98,11.89-6.22,16.3-9.91,19.23-6.88,5.46-11.73,7.24-19.33,7.24-2.18,0-4.39-.59-6.64-1.59-2.25-.99-4.16-2.41-5.75-4.26-3.7-4.49-3.88-10.36-2.18-18.04,3.15-14.21,7.46-32.71,16.06-54.91,4.09-10.97,8.68-18.99,11.89-25.18ZM901.55,449.75c-6.32,1.95-11.73.93-15.76-1.19-4.03-2.11-6.38-4.66-7.04-7.63-.66-2.97.26-6.05,2.77-9.22,2.91-3.97,7.27-6.54,13.08-7.73,2.64-.26,8.35.05,10.11.4,4.3.84,6.87,2.46,8.52,5.75,1.55,3.07,2.01,6.21.5,9.91-1.52,3.7-5.35,7.6-12.19,9.71Z"/>
          <path class="cls-2" d="M937.97,470.56c3.56.14,7.04.83,10.4,2.48,3.37,1.66,5.65,4.46,6.84,8.43,11.23-9.78,21.47-13.54,30.73-11.3,3.17.66,5.88,2.51,8.12,5.55,6.74-6.47,14.05-11.53,22.4-12.68,10.22-1.42,18.18,1.6,22.2,7.13,6.7,9.22,8.19,18.37,7.14,31.71-1.46,17.31-4.76,34.69-9.91,52.13-2.77,8.85-5.77,12.26-7.53,13.67-7.13,5.74-14.8,6.94-20.22,6.94s-9.78-1.66-13.48-4.96c-4.1-3.44-5.52-7.5-4.26-12.19,1.26-4.69,2.68-9.52,4.26-14.47,1.58-4.95,3.3-10.07,5.15-15.36,3.17-9.25,6.67-18.9,10.51-28.94-2.77,3.17-6.54,9.15-11.3,17.94-4.76,8.79-7.73,14.04-8.92,15.76-2.25,4.49-4.1,8.03-5.55,10.6-1.46,2.58-3.4,4.63-5.85,6.15-2.45,1.52-4.69,2.48-6.74,2.87-2.05.4-4,.47-5.85.2-4.36-.66-7.47-2.51-9.32-5.55-.4-1.05-.79-2.11-1.19-3.17-.4-1.06-.73-2.51-.99-4.36-.4-4.09,1.19-19.42,1.19-19.42-3.34,4.83-6.87,11.17-7.93,13.28-1.06,2.12-2.18,4.46-3.37,7.04s-2.58,5.55-4.16,8.92c-1.59,3.37-2.84,6.38-3.77,9.02-.93,2.65-2.05,5.22-3.37,7.73-5.95,10.31-17.43,18.31-31.32,12.49-6.55-2.75-10.1-7.24-3.57-33.7,6.1-24.71,11.45-40.12,13.48-46.98.72-2.45,3.97-12.02,4.76-13.87,1.58-4.36,8.02-13.61,21.41-13.08Z"/>
          <path class="cls-2" d="M1151.28,483.64c1.48,2.23,2.87,5.64,3.37,10.31.67,6.31-.39,15.13-1.98,26.36-3.04,22.73-4.69,36.27-4.96,40.64.26,4.62-2.58,7.79-8.52,9.52-5.16,1.58-10.31,1.52-15.46-.2-5.42-1.85-7.67-4.69-6.74-8.52-1.06,1.98-2.12,3.4-3.17,4.26-1.06.86-3.14,2.05-6.24,3.57-3.11,1.52-7.5,2.77-13.18,3.77-5.68.99-11.37,1.25-17.05.79-5.68-.47-10.87-1.85-15.56-4.17-4.69-2.31-7.83-5.91-9.41-10.8-3.04-9.52-2.64-21.61,1.19-36.28,2.64-9.64,7.4-18.17,14.27-25.57,7.93-8.46,16.91-15.46,26.96-21.01,7.53-4.1,14.78-6.75,21.8-7.33,11.08-.93,17.93,1.7,19.78,2.49,4.76,1.98,12.69,8.84,14.9,12.17ZM1109.65,516.74c-10.7,4.36-18.9,9.71-24.58,16.06-6.21,7.01-5.82,11.83,1.19,14.47,6.08,1.58,10.51.59,13.28-2.97,1.19-1.58,2.24-3.57,3.17-5.95.92-2.38,5.88-18.3,6.94-21.61Z"/>
          <path class="cls-2" d="M1372.22,483.64c1.48,2.23,2.87,5.64,3.37,10.31.67,6.31-.39,15.13-1.98,26.36-3.04,22.73-4.69,36.27-4.96,40.64.26,4.62-2.58,7.79-8.52,9.52-5.16,1.58-10.31,1.52-15.46-.2-5.42-1.85-7.67-4.69-6.74-8.52-1.06,1.98-2.12,3.4-3.17,4.26-1.06.86-3.14,2.05-6.24,3.57-3.11,1.52-7.5,2.77-13.18,3.77-5.68.99-11.37,1.25-17.05.79-5.68-.47-10.87-1.85-15.56-4.17-4.69-2.31-7.83-5.91-9.41-10.8-3.04-9.52-2.64-21.61,1.19-36.28,2.64-9.64,7.4-18.17,14.27-25.57,7.93-8.46,16.91-15.46,26.96-21.01,7.53-4.1,14.78-6.75,21.8-7.33,11.08-.93,17.93,1.7,19.78,2.49,4.76,1.98,12.69,8.84,14.9,12.17ZM1330.59,516.74c-10.7,4.36-18.9,9.71-24.58,16.06-6.21,7.01-5.82,11.83,1.19,14.47,6.08,1.58,10.51.59,13.28-2.97,1.19-1.58,2.24-3.57,3.17-5.95.92-2.38,5.88-18.3,6.94-21.61Z"/>
          <path class="cls-2" d="M1457.14,570.07c-5.17,4.21-11.27,7.43-18.34,9.61-7.07,2.18-14.17,3.34-21.31,3.47-7.13.13-13.81-.73-20.02-2.58-6.21-1.85-11.1-4.76-14.67-8.72-4.23-4.5-5.72-9-4.36-13.48,3.99-13.19,14.59-15.24,19.82-15.06,23.26.66,35.35-1.39,36.28-6.14-1.59-1.45-3.54-2.71-5.85-3.77-2.31-1.05-4.67-2.09-7.04-3.17-12.59-5.73-16.12-13.21-17.45-18.24-.66-2.25-.94-4.56-.99-6.94-.21-9.43,3.97-17.37,10.71-23.59,1.85-1.72,4.16-3.57,6.94-5.55,2.77-1.98,6.94-3.9,12.49-5.75,5.55-1.85,11.07-3.2,16.55-4.06,5.48-.86,10.44-1.15,14.87-.89,4.43.27,7.6,1.32,9.52,3.17,1.91,1.85,3.43,4.16,4.56,6.94,1.12,2.77,1.49,5.49,1.09,8.13-1.06,5.95-5.74,11.08-14.67,12.29-14.07,1.91-16.32,4.96-17.25,5.35,10.17,7.01,17.25,13.87,21.21,20.61,5.42,9.25,7.69,20.17,2.38,30.92-4.18,8.46-7.99,12.18-14.47,17.45Z"/>
          <path class="cls-2" d="M1544.45,570.07c-5.17,4.21-11.27,7.43-18.34,9.61-7.07,2.18-14.17,3.34-21.31,3.47-7.13.13-13.81-.73-20.02-2.58-6.21-1.85-11.1-4.76-14.67-8.72-4.23-4.5-5.72-9-4.36-13.48,3.99-13.19,14.59-15.24,19.82-15.06,23.26.66,35.35-1.39,36.28-6.14-1.59-1.45-3.54-2.71-5.85-3.77-2.31-1.05-4.67-2.09-7.04-3.17-12.59-5.73-16.12-13.21-17.45-18.24-.66-2.25-.94-4.56-.99-6.94-.21-9.43,3.97-17.37,10.71-23.59,1.85-1.72,4.16-3.57,6.94-5.55,2.77-1.98,6.94-3.9,12.49-5.75,5.55-1.85,11.07-3.2,16.55-4.06,5.48-.86,10.44-1.15,14.87-.89,4.43.27,7.6,1.32,9.52,3.17,1.91,1.85,3.43,4.16,4.56,6.94,1.12,2.77,1.49,5.49,1.09,8.13-1.06,5.95-5.74,11.08-14.67,12.29-14.07,1.91-16.32,4.96-17.25,5.35,10.17,7.01,17.25,13.87,21.21,20.61,5.42,9.25,7.69,20.17,2.38,30.92-4.18,8.46-7.99,12.18-14.47,17.45Z"/>
          <path class="cls-2" d="M1640.93,535.97c-2.51,1.19-4.96,2.12-7.33,2.77-2.38.66-5.16,1.32-8.33,1.98-8.32,1.72-14.34,2.71-18.04,2.97.4,1.32,2.13,3.49,5.95,4.76,2.29.76,4.99.04,7.83-1.09,2.84-1.12,5.81-2.18,8.92-3.17,3.1-.99,6.16-1.36,9.12-1.69,11.39-1.27,16.19,10.64,17.45,13.28,1.25,2.65.92,5.16-.99,7.53-1.92,2.38-4.85,4.43-8.82,6.14-3.97,1.72-8.59,3.1-13.87,4.16-5.29,1.06-10.57,1.78-15.86,2.18-11.89.92-20.95,0-27.15-2.77-8.99-3.04-14.8-9.05-17.44-18.04-3.44-11.89-1.52-25.77,5.75-41.63,3.3-7.4,8.52-15.33,15.66-23.79,6.21-7.4,13.15-12.75,20.81-16.06,8.85-3.83,18.1-5.61,27.75-5.35,10.31.27,17.44,4.76,21.41,13.48,1.98,4.63,2.38,11.1,1.19,19.43-2.12,10.84-4.89,18.5-8.32,22.99-3.44,4.36-8.66,8.32-15.66,11.89ZM1629.43,504.65c-7.01-1.45-12.49,2.51-16.45,11.89-1.19,2.51-2.12,5.15-2.77,7.93,4.49.53,9.25-1.98,14.27-7.53,1.85-2.24,3.23-4.52,4.16-6.84.92-2.31,1.19-4.13.79-5.45Z"/>
          <path class="cls-2" d="M1719.97,479.28c1.6,1.84,2.38,4.43,2.38,7.73v.99c4.89-5.68,13.41-10.44,25.57-14.27,12.82-3.97,23.39-5.08,31.71-3.37,10.83,2.25,16.91,9.32,18.24,21.21,1.06,10.04-1.26,22.8-6.94,38.26-1.85,3.96-3.27,7.17-4.26,9.61-.99,2.45-7.46,14.53-10.8,19.92-2.37,3.82-5.39,7-9.81,9.12-4.43,2.11-8.79,3.34-13.08,3.67-4.3.33-7.83-.33-10.6-1.98-2.77-1.65-3.57-4.26-2.38-7.83,3.04-8.19,11.88-34.76,13.68-39.64,2.42-6.59,2.25-10.97.79-12.69-1.19-1.32-3.21-1.07-6.14.6-5.04,2.88-12.22,14.14-18.83,26.16-1.85,3.3-3.67,6.58-5.45,9.81-1.78,3.24-3.26,6.35-4.96,9.02-6.13,9.62-9.69,18.1-21.11,21.8-9.21,2.99-17.84,1.98-25.37-1.19-2.51-1.06-4.69-2.37-5.95-4.36-3.64-5.74,2.18-26.76,15.66-62.04,4.76-12.42,9.35-25.4,15.76-30.72,6.23-5.18,18.89-3.26,21.9.2Z"/>
        </g>
        <g>
          <path class="cls-2" d="M706.23,676.74c-1.65-.11-3.22-.16-4.72-.16h-3.27c-3.73,0-6.74.03-9.03.08-2.29.05-4.08.13-5.35.24-1.28.11-2.2.2-2.76.28-.56.08-.97.15-1.24.2h-.24c-.69,0-1.37-.45-2.04-1.36-.67-.9-1-1.62-1-2.16,0-.37.09-.74.28-1.12.18-.37.28-.88.28-1.52v-41.47c0-1.65-.04-3.25-.12-4.79-.08-1.54-.12-2.77-.12-3.68,0-.53.45-.8,1.36-.8.75,0,1.54.2,2.4.6.85.4,1.28.95,1.28,1.64,0,.64-.03,1.64-.08,3-.05,1.36-.08,2.73-.08,4.11v42.9c1.23-.05,2.7-.1,4.44-.16,1.73-.05,3.55-.09,5.47-.12,1.92-.03,3.73-.05,5.43-.08,1.7-.03,3.14-.04,4.31-.04h3.72c1.25,0,2.23-.03,2.92-.08h.08c.69,0,1.28.44,1.76,1.32.48.88.72,1.69.72,2.44,0,.69-.24,1.04-.72,1.04h-.16c-.69-.11-1.87-.21-3.52-.32Z"/>
          <path class="cls-2" d="M749.17,661.01c0,4.37,1,7.64,3,9.83,2,2.19,4.36,3.28,7.07,3.28,3.46,0,6.62-.63,9.47-1.88,2.85-1.25,5.34-3.02,7.47-5.31.64-.69,1.2-1.04,1.68-1.04.43,0,.64.27.64.8,0,.48-.4,1.33-1.2,2.56-.8,1.23-1.98,2.52-3.55,3.87-1.57,1.36-3.57,2.53-5.99,3.52-2.42.98-5.26,1.48-8.51,1.48s-6.1-.97-8.55-2.92c-2.45-1.94-4.15-4.62-5.11-8.03-1.87,3.84-4.33,6.62-7.39,8.35-3.06,1.73-6.03,2.6-8.91,2.6-3.84,0-6.91-1.29-9.23-3.87-2.32-2.58-3.48-6.38-3.48-11.39,0-3.36.57-6.52,1.72-9.51,1.15-2.98,2.66-5.62,4.55-7.91,1.89-2.29,3.99-4.07,6.31-5.35,2.32-1.28,4.65-1.92,6.99-1.92,1.97,0,3.85.48,5.63,1.44,1.78.96,3.1,2.45,3.95,4.47.05-1.23.09-2.3.12-3.24.03-.93.04-1.58.04-1.96,0-.48.45-.72,1.36-.72.75,0,1.53.19,2.36.56.82.37,1.24.85,1.24,1.44v.16c-.05.64-.15,1.52-.28,2.64-.13,1.12-.23,2.29-.28,3.52,1.81-2.34,3.99-4.31,6.55-5.91,2.56-1.6,5.35-2.4,8.39-2.4,3.25,0,5.83.56,7.75,1.68,1.92,1.12,3.29,2.56,4.11,4.31.83,1.76,1.24,3.6,1.24,5.51,0,1.55-.19,2.82-.56,3.83-.38,1.01-1.11,1.88-2.2,2.6-1.09.72-2.7,1.42-4.83,2.12-2.4.69-5.33,1.29-8.79,1.8-3.46.51-7.4.76-11.83.76h-.96v.24ZM745.14,646.55c-.29.16-.57.24-.84.24-.32,0-.56-.11-.72-.32-1.01-1.54-2.19-2.68-3.52-3.4-1.33-.72-2.61-1.08-3.83-1.08-1.76,0-3.53.52-5.31,1.56-1.79,1.04-3.42,2.49-4.91,4.35-1.49,1.87-2.68,4.04-3.55,6.51-.88,2.48-1.32,5.15-1.32,8.03,0,4.1.77,7.07,2.32,8.91,1.54,1.84,3.49,2.76,5.83,2.76,2.66,0,5.2-.85,7.63-2.56,2.42-1.7,4.43-4.1,6.03-7.19,1.6-3.09,2.48-6.68,2.64-10.79.05-.8.08-1.93.08-3.4s.03-2.86.08-4.19c-.11.21-.31.4-.6.56ZM761.75,656.21c2.85-.42,5.18-.9,6.99-1.44,1.65-.48,2.84-.93,3.55-1.36.72-.43,1.18-.93,1.4-1.52.21-.59.32-1.36.32-2.32,0-2.34-.77-4.19-2.32-5.55-1.55-1.36-3.73-2.04-6.55-2.04-1.97,0-3.83.49-5.59,1.48-1.76.99-3.31,2.25-4.67,3.8-1.36,1.55-2.49,3.17-3.39,4.87-.91,1.7-1.49,3.28-1.76,4.71h1.68c4.05,0,7.5-.21,10.35-.64Z"/>
          <path class="cls-2" d="M787.9,645.03c-.05-1.12-.09-2.26-.12-3.44-.03-1.17-.04-2.05-.04-2.64,0-.48.4-.72,1.2-.72.75,0,1.52.2,2.32.6.8.4,1.2.92,1.2,1.56s-.02,1.43-.04,2.36c-.03.93-.04,1.88-.04,2.84,1.06-2.02,2.73-3.77,4.99-5.23,2.26-1.47,4.81-2.2,7.63-2.2,1.44,0,2.85.25,4.24.76,1.38.51,2.53,1.12,3.44,1.84.9.72,1.36,1.43,1.36,2.12,0,.75-.24,1.52-.72,2.32s-.99,1.2-1.52,1.2c-.43,0-.8-.27-1.12-.8-.53-1.06-1.44-1.84-2.72-2.32-1.28-.48-2.34-.72-3.19-.72-2.29,0-4.53.77-6.71,2.32-2.18,1.55-3.73,3.78-4.63,6.71-.37,1.23-.64,2.56-.8,3.99-.16,1.44-.25,3.17-.28,5.19-.03,2.02-.04,4.55-.04,7.59,0,1.65.04,3.25.12,4.79.08,1.55.12,2.77.12,3.68,0,.48-.4.72-1.2.72-.69,0-1.45-.2-2.28-.6-.83-.4-1.24-.92-1.24-1.56,0-.43.01-1.13.04-2.12.03-.98.05-1.96.08-2.92.03-.96.04-1.62.04-2v-20.85c0-.53-.03-1.36-.08-2.48Z"/>
          <path class="cls-2" d="M817.17,676.91c-.24-.16-.41-.27-.52-.32-.37-.32-.79-.83-1.24-1.52-.45-.69-.68-1.46-.68-2.32,0-2.45,1.15-3.68,3.44-3.68,1.06,0,1.97.47,2.72,1.4.74.93,1.2,2.06,1.36,3.4,0,.11.01.23.04.36s.04.25.04.36c0,1.28-.32,2.53-.96,3.76-.64,1.22-1.44,2.33-2.4,3.31-.96.99-1.92,1.76-2.88,2.32s-1.73.84-2.32.84c-.69,0-1.04-.35-1.04-1.04,0-.43.21-.77.64-1.04,1.01-.69,1.94-1.55,2.8-2.56s1.38-2,1.6-2.96c-.16-.05-.36-.16-.6-.32Z"/>
          <path class="cls-2" d="M866.3,645.03c-.05-1.12-.09-2.26-.12-3.44-.03-1.17-.04-2.05-.04-2.64,0-.48.4-.72,1.2-.72.75,0,1.52.2,2.32.6.8.4,1.2.92,1.2,1.56s-.02,1.43-.04,2.36c-.03.93-.04,1.88-.04,2.84,1.06-2.02,2.73-3.77,4.99-5.23,2.26-1.47,4.81-2.2,7.63-2.2,1.44,0,2.85.25,4.24.76,1.38.51,2.53,1.12,3.44,1.84.9.72,1.36,1.43,1.36,2.12,0,.75-.24,1.52-.72,2.32s-.99,1.2-1.52,1.2c-.43,0-.8-.27-1.12-.8-.53-1.06-1.44-1.84-2.72-2.32-1.28-.48-2.34-.72-3.19-.72-2.29,0-4.53.77-6.71,2.32-2.18,1.55-3.73,3.78-4.63,6.71-.37,1.23-.64,2.56-.8,3.99-.16,1.44-.25,3.17-.28,5.19-.03,2.02-.04,4.55-.04,7.59,0,1.65.04,3.25.12,4.79.08,1.55.12,2.77.12,3.68,0,.48-.4.72-1.2.72-.69,0-1.45-.2-2.28-.6-.83-.4-1.24-.92-1.24-1.56,0-.43.01-1.13.04-2.12.03-.98.05-1.96.08-2.92.03-.96.04-1.62.04-2v-20.85c0-.53-.03-1.36-.08-2.48Z"/>
          <path class="cls-2" d="M898.13,661.01c0,4.37,1,7.64,2.99,9.83,2,2.19,4.36,3.28,7.07,3.28,3.46,0,6.62-.63,9.47-1.88,2.85-1.25,5.34-3.02,7.47-5.31.64-.69,1.2-1.04,1.68-1.04.42,0,.64.27.64.8,0,.48-.4,1.33-1.2,2.56-.8,1.23-1.98,2.52-3.55,3.87-1.57,1.36-3.57,2.53-5.99,3.52-2.42.98-5.26,1.48-8.51,1.48-2.72,0-5.16-.68-7.31-2.04-2.16-1.36-3.88-3.3-5.15-5.83-1.28-2.53-1.92-5.53-1.92-8.99v-1.2c-1.12-.74-1.68-1.54-1.68-2.4,0-.64.45-.96,1.36-.96.11,0,.4-.03.88-.08.32-1.92,1.05-3.94,2.2-6.07,1.14-2.13,2.6-4.13,4.35-5.99,1.76-1.86,3.76-3.4,5.99-4.59,2.24-1.2,4.66-1.8,7.27-1.8,3.25,0,5.83.56,7.75,1.68,1.92,1.12,3.29,2.56,4.11,4.31.82,1.76,1.24,3.6,1.24,5.51,0,1.55-.19,2.82-.56,3.83-.37,1.01-1.11,1.88-2.2,2.6-1.09.72-2.7,1.42-4.83,2.12-2.4.69-5.33,1.29-8.79,1.8-3.46.51-7.4.76-11.82.76h-.96v.24ZM910.72,656.21c2.85-.42,5.18-.9,6.99-1.44,1.65-.48,2.84-.93,3.56-1.36.72-.43,1.18-.93,1.4-1.52.21-.59.32-1.36.32-2.32,0-2.34-.77-4.19-2.32-5.55-1.54-1.36-3.73-2.04-6.55-2.04-1.97,0-3.84.49-5.59,1.48-1.76.99-3.32,2.25-4.67,3.8-1.36,1.55-2.49,3.17-3.4,4.87-.91,1.7-1.49,3.28-1.76,4.71h1.68c4.05,0,7.5-.21,10.35-.64Z"/>
          <path class="cls-2" d="M935.71,642.71c-.05-1.49-.11-2.69-.16-3.59,0-.48.4-.72,1.2-.72.75,0,1.53.2,2.36.6.82.4,1.24.92,1.24,1.56,0,.32-.02.88-.04,1.68s-.04,1.65-.04,2.56-.03,2-.08,3.27c.9-1.97,2.18-3.7,3.83-5.19,1.65-1.49,3.52-2.65,5.59-3.48,2.08-.83,4.15-1.24,6.23-1.24,4.32,0,7.64,1.44,9.99,4.31,2.34,2.88,3.52,6.93,3.52,12.14,0,3.04-.45,5.95-1.36,8.75-.91,2.8-2.17,5.3-3.8,7.51-1.63,2.21-3.57,3.95-5.83,5.23-2.26,1.28-4.75,1.92-7.47,1.92-2.02,0-4.06-.47-6.11-1.4-2.05-.93-3.61-2.3-4.67-4.12v8.79c0,1.65.04,3.25.12,4.79s.12,2.77.12,3.68c0,.48-.4.72-1.2.72-.69,0-1.45-.2-2.28-.6-.83-.4-1.24-.92-1.24-1.56s.03-1.64.08-2.99c.05-1.36.08-2.73.08-4.12v-33.8c0-1.65-.03-3.22-.08-4.71ZM940.66,668.68c.27,0,.56.09.88.28.32.19.61.49.88.92,1.06,1.49,2.29,2.58,3.68,3.28,1.38.69,2.8,1.04,4.23,1.04,2.88,0,5.41-.92,7.59-2.76,2.18-1.84,3.89-4.22,5.11-7.15,1.22-2.93,1.84-6.02,1.84-9.27,0-4.26-.83-7.47-2.48-9.63-1.65-2.16-3.83-3.24-6.55-3.24-2.24,0-4.43.63-6.59,1.88s-4.02,2.97-5.59,5.15c-1.57,2.18-2.65,4.69-3.24,7.51-.16.69-.25,2.21-.28,4.55-.03,2.34-.04,4.87-.04,7.59.21-.11.4-.16.56-.16Z"/>
          <path class="cls-2" d="M1010.97,644.99c-.13,1.94-.24,3.99-.32,6.15s-.15,4.17-.2,6.03c-.05,1.86-.08,3.27-.08,4.23,0,.69.04,1.77.12,3.24.08,1.47.32,3.05.72,4.75.4,1.7,1.05,3.28,1.96,4.71.11.21.16.4.16.56,0,.59-.28,1.24-.84,1.96-.56.72-1.21,1.08-1.96,1.08-.53,0-1.05-.39-1.56-1.16-.51-.77-.96-1.76-1.36-2.96-.4-1.2-.73-2.41-1-3.63-.27-1.23-.43-2.29-.48-3.2-1.92,3.89-4.36,6.75-7.31,8.59s-5.95,2.76-8.99,2.76c-3.83,0-6.91-1.29-9.23-3.87s-3.47-6.38-3.47-11.39c0-3.36.57-6.52,1.72-9.51,1.15-2.98,2.66-5.62,4.55-7.91,1.89-2.29,3.99-4.07,6.31-5.35,2.32-1.28,4.65-1.92,6.99-1.92,1.97,0,3.85.48,5.63,1.44,1.79.96,3.1,2.45,3.96,4.47.05-1.23.09-2.3.12-3.24.03-.93.04-1.58.04-1.96,0-.48.45-.72,1.36-.72.74,0,1.53.19,2.36.56.83.37,1.24.85,1.24,1.44v.16c-.16,1.17-.31,2.73-.44,4.67ZM1005.69,646.55c-.29.16-.57.24-.84.24-.32,0-.56-.11-.72-.32-1.01-1.54-2.18-2.68-3.52-3.4-1.33-.72-2.61-1.08-3.83-1.08-1.76,0-3.53.52-5.31,1.56-1.79,1.04-3.42,2.49-4.91,4.35-1.49,1.87-2.68,4.04-3.56,6.51-.88,2.48-1.32,5.15-1.32,8.03,0,4.1.77,7.07,2.32,8.91,1.54,1.84,3.49,2.76,5.83,2.76,2.66,0,5.2-.85,7.63-2.56,2.42-1.7,4.44-4.1,6.03-7.19,1.6-3.09,2.48-6.68,2.64-10.79.05-.8.08-1.93.08-3.4s.03-2.86.08-4.19c-.11.21-.31.4-.6.56Z"/>
          <path class="cls-2" d="M1022.53,645.03c-.05-1.12-.09-2.26-.12-3.44-.03-1.17-.04-2.05-.04-2.64,0-.48.4-.72,1.2-.72.75,0,1.52.2,2.32.6.8.4,1.2.92,1.2,1.56s-.02,1.43-.04,2.36c-.03.93-.04,1.88-.04,2.84,1.06-2.02,2.73-3.77,4.99-5.23s4.81-2.2,7.63-2.2c1.44,0,2.85.25,4.24.76,1.38.51,2.53,1.12,3.44,1.84.9.72,1.36,1.43,1.36,2.12,0,.75-.24,1.52-.72,2.32s-.99,1.2-1.52,1.2c-.43,0-.8-.27-1.12-.8-.53-1.06-1.44-1.84-2.72-2.32-1.28-.48-2.34-.72-3.19-.72-2.29,0-4.53.77-6.71,2.32-2.18,1.55-3.73,3.78-4.63,6.71-.37,1.23-.64,2.56-.8,3.99-.16,1.44-.25,3.17-.28,5.19-.03,2.02-.04,4.55-.04,7.59,0,1.65.04,3.25.12,4.79.08,1.55.12,2.77.12,3.68,0,.48-.4.72-1.2.72-.69,0-1.45-.2-2.28-.6-.83-.4-1.24-.92-1.24-1.56,0-.43.01-1.13.04-2.12.03-.98.05-1.96.08-2.92.03-.96.04-1.62.04-2v-20.85c0-.53-.03-1.36-.08-2.48Z"/>
          <path class="cls-2" d="M1056.4,661.01c0,4.37,1,7.64,2.99,9.83,2,2.19,4.36,3.28,7.07,3.28,3.46,0,6.62-.63,9.47-1.88,2.85-1.25,5.34-3.02,7.47-5.31.64-.69,1.2-1.04,1.68-1.04.42,0,.64.27.64.8,0,.48-.4,1.33-1.2,2.56-.8,1.23-1.98,2.52-3.55,3.87-1.57,1.36-3.57,2.53-5.99,3.52-2.42.98-5.26,1.48-8.51,1.48-2.72,0-5.16-.68-7.31-2.04-2.16-1.36-3.88-3.3-5.15-5.83-1.28-2.53-1.92-5.53-1.92-8.99v-1.2c-1.12-.74-1.68-1.54-1.68-2.4,0-.64.45-.96,1.36-.96.11,0,.4-.03.88-.08.32-1.92,1.05-3.94,2.2-6.07,1.14-2.13,2.6-4.13,4.35-5.99,1.76-1.86,3.76-3.4,5.99-4.59,2.24-1.2,4.66-1.8,7.27-1.8,3.25,0,5.83.56,7.75,1.68,1.92,1.12,3.29,2.56,4.11,4.31.82,1.76,1.24,3.6,1.24,5.51,0,1.55-.19,2.82-.56,3.83-.37,1.01-1.11,1.88-2.2,2.6-1.09.72-2.7,1.42-4.83,2.12-2.4.69-5.33,1.29-8.79,1.8-3.46.51-7.4.76-11.82.76h-.96v.24ZM1068.99,656.21c2.85-.42,5.18-.9,6.99-1.44,1.65-.48,2.84-.93,3.56-1.36.72-.43,1.18-.93,1.4-1.52.21-.59.32-1.36.32-2.32,0-2.34-.77-4.19-2.32-5.55-1.54-1.36-3.73-2.04-6.55-2.04-1.97,0-3.84.49-5.59,1.48-1.76.99-3.32,2.25-4.67,3.8-1.36,1.55-2.49,3.17-3.4,4.87-.91,1.7-1.49,3.28-1.76,4.71h1.68c4.05,0,7.5-.21,10.35-.64Z"/>
          <path class="cls-2" d="M1096.69,645.03c-.05-1.12-.09-2.26-.12-3.44-.03-1.17-.04-2.05-.04-2.64,0-.48.4-.72,1.2-.72.75,0,1.52.2,2.32.6.8.4,1.2.92,1.2,1.56s-.02,1.43-.04,2.36c-.03.93-.04,1.88-.04,2.84,1.06-2.02,2.73-3.77,4.99-5.23,2.26-1.47,4.81-2.2,7.63-2.2,1.44,0,2.85.25,4.24.76,1.38.51,2.53,1.12,3.44,1.84.9.72,1.36,1.43,1.36,2.12,0,.75-.24,1.52-.72,2.32s-.99,1.2-1.52,1.2c-.43,0-.8-.27-1.12-.8-.53-1.06-1.44-1.84-2.72-2.32-1.28-.48-2.34-.72-3.19-.72-2.29,0-4.53.77-6.71,2.32-2.18,1.55-3.73,3.78-4.63,6.71-.37,1.23-.64,2.56-.8,3.99-.16,1.44-.25,3.17-.28,5.19-.03,2.02-.04,4.55-.04,7.59,0,1.65.04,3.25.12,4.79.08,1.55.12,2.77.12,3.68,0,.48-.4.72-1.2.72-.69,0-1.45-.2-2.28-.6-.83-.4-1.24-.92-1.24-1.56,0-.43.01-1.13.04-2.12.03-.98.05-1.96.08-2.92.03-.96.04-1.62.04-2v-20.85c0-.53-.03-1.36-.08-2.48Z"/>
          <path class="cls-2" d="M1175.19,676.27c-3.22,1.17-6.35,1.76-9.39,1.76-5.96,0-10.24-1.22-12.82-3.68-2.58-2.45-3.88-5.7-3.88-9.75s1.19-7.88,3.56-11.03c2.37-3.14,5.42-6.04,9.15-8.71-1.87-2.34-3.2-4.58-3.99-6.71-.8-2.13-1.2-4.1-1.2-5.91,0-2.4.57-4.5,1.72-6.31,1.15-1.81,2.69-3.24,4.63-4.27,1.94-1.04,4.06-1.56,6.35-1.56,3.36,0,5.97.79,7.83,2.36,1.86,1.57,2.8,3.95,2.8,7.15,0,2.02-.6,4.01-1.8,5.95-1.2,1.94-2.73,3.77-4.59,5.47-1.87,1.7-3.81,3.28-5.83,4.71,2.13,2.61,4.61,5.5,7.43,8.67,2.82,3.17,5.67,6.25,8.55,9.23,1.76-2.45,3.26-5.06,4.52-7.83,1.25-2.77,2.17-5.38,2.76-7.83.11-.59.23-1.24.36-1.96s.52-1.08,1.16-1.08c.1,0,.42.12.96.36.53.24,1.06.59,1.6,1.04.53.45.8,1.03.8,1.72,0,.43-.28,1.37-.84,2.84s-1.29,3.16-2.2,5.07c-.91,1.92-1.88,3.85-2.92,5.79-1.04,1.94-2.06,3.61-3.08,4.99,1.86,1.97,3.69,3.69,5.47,5.15s3.48,2.49,5.08,3.08c.85.32,1.6.69,2.24,1.12s.96.8.96,1.12c0,.43-.72.64-2.16.64-1.92,0-3.57-.25-4.95-.76-1.39-.51-2.79-1.33-4.19-2.48-1.41-1.15-3.1-2.7-5.08-4.67-2.77,3.04-5.76,5.14-8.99,6.31ZM1172.28,657.09c-3.03-3.41-5.67-6.44-7.91-9.11-1.92,1.28-3.7,2.74-5.35,4.39-1.65,1.65-2.98,3.48-3.99,5.47-1.01,2-1.52,4.19-1.52,6.59,0,2.93.97,5.31,2.92,7.15,1.94,1.84,5.02,2.76,9.23,2.76,2.13,0,4.62-.55,7.47-1.64,2.85-1.09,5.55-3.05,8.11-5.87-2.93-3.09-5.91-6.34-8.95-9.75ZM1170.32,638.47c1.57-1.49,2.84-2.98,3.8-4.47.96-1.49,1.44-2.85,1.44-4.07,0-4.21-2.08-6.31-6.23-6.31-1.38,0-2.72.39-3.99,1.16-1.28.77-2.32,1.83-3.11,3.16-.8,1.33-1.2,2.88-1.2,4.63,0,1.49.31,3.06.92,4.71.61,1.65,1.66,3.41,3.16,5.27,1.92-1.23,3.66-2.58,5.23-4.08Z"/>
          <path class="cls-2" d="M1250.47,673.91c-2.9,1.47-5.79,2.2-8.67,2.2-4.16,0-7.47-1.37-9.95-4.11-2.48-2.74-3.72-6.75-3.72-12.03,0-2.72.51-5.37,1.52-7.95,1.01-2.58,2.4-4.91,4.15-6.99,1.76-2.08,3.8-3.74,6.11-4.99,2.32-1.25,4.75-1.88,7.31-1.88,2.29,0,4.41.48,6.35,1.44,1.94.96,3.42,2.53,4.43,4.71,0-1.23-.01-2.29-.04-3.2-.03-.91-.04-1.65-.04-2.24,0-.48.43-.72,1.28-.72.69,0,1.44.2,2.24.6.8.4,1.2.89,1.2,1.48v.08c-.05,1.01-.12,2.24-.2,3.68-.08,1.44-.12,2.85-.12,4.23v24.61c0,3.84-.89,7.08-2.68,9.75-1.79,2.66-4.15,4.67-7.11,6.03-2.96,1.36-6.19,2.04-9.71,2.04-2.93,0-5.33-.39-7.19-1.16-1.86-.77-3.31-1.67-4.35-2.68-1.04-1.01-1.77-1.93-2.2-2.76-.43-.83-.64-1.27-.64-1.32,0-.69.32-1.39.96-2.08s1.25-1.04,1.84-1.04c.48,0,.83.27,1.04.8,1.01,2.24,2.33,3.82,3.96,4.75,1.62.93,3.82,1.4,6.59,1.4s5.3-.51,7.59-1.52c2.29-1.01,4.13-2.54,5.51-4.59,1.39-2.05,2.08-4.62,2.08-7.71v-6.63c-2.13,3.73-4.65,6.33-7.55,7.79ZM1257.3,646.46c-.32.27-.64.4-.96.4-.27,0-.51-.13-.72-.4-1.17-1.54-2.48-2.66-3.91-3.36-1.44-.69-2.9-1.04-4.39-1.04-1.97,0-3.85.52-5.63,1.56-1.79,1.04-3.36,2.44-4.72,4.19-1.36,1.76-2.42,3.69-3.19,5.79-.77,2.11-1.16,4.19-1.16,6.27,0,4.31.84,7.43,2.52,9.35,1.68,1.92,3.9,2.88,6.67,2.88,1.97,0,4.05-.51,6.23-1.52,2.18-1.01,4.17-2.5,5.95-4.47,1.78-1.97,2.99-4.37,3.63-7.19.21-.69.33-1.9.36-3.63.03-1.73.04-3.61.04-5.63v-3.99c-.16.27-.4.53-.72.8Z"/>
          <path class="cls-2" d="M1271.09,660.29c0-2.4.39-4.75,1.16-7.07.77-2.32,1.7-4.42,2.8-6.31,1.09-1.89,2.16-3.4,3.2-4.51,1.04-1.12,1.82-1.68,2.36-1.68.59,0,1.01.27,1.28.8,1.06-.8,2.36-1.56,3.87-2.28,1.52-.72,3.4-1.08,5.63-1.08,3.36,0,6.26.93,8.71,2.8.8-1.22,1.37-2.08,1.72-2.56.34-.48.59-.77.72-.88.13-.11.25-.16.36-.16.43,0,.92.35,1.48,1.04.56.69.84,1.39.84,2.08,0,.27-.12.56-.36.88-.24.32-.92,1.09-2.04,2.32,1.23,1.65,2.18,3.61,2.88,5.87.69,2.27,1.04,4.83,1.04,7.71,0,2.56-.41,5.06-1.24,7.51-.83,2.45-2.04,4.69-3.64,6.71-1.6,2.02-3.57,3.63-5.91,4.83-2.34,1.2-5.06,1.8-8.15,1.8-4.16,0-7.65-1.04-10.47-3.12-1.01,1.55-1.69,2.52-2.04,2.92-.35.4-.63.6-.84.6-.53,0-1.08-.33-1.64-1-.56-.67-.84-1.32-.84-1.96,0-.37.11-.66.32-.88l2.24-2.4c-2.29-3.09-3.44-7.08-3.44-11.98ZM1290.91,642.15c-2.24,0-4.3.53-6.19,1.6-1.89,1.07-3.52,2.49-4.88,4.27-1.36,1.79-2.42,3.74-3.19,5.87-.77,2.13-1.16,4.23-1.16,6.31,0,3.41.67,6.23,2,8.47l19.89-24.37c-1.65-1.44-3.81-2.16-6.47-2.16ZM1287.79,674.03c2.61,0,5.02-.76,7.23-2.28,2.21-1.52,3.98-3.54,5.31-6.07,1.33-2.53,2-5.34,2-8.43,0-4.1-.8-7.46-2.4-10.07l-19.89,24.45c2.02,1.6,4.61,2.4,7.75,2.4Z"/>
          <path class="cls-2" d="M1316.42,645.03c-.05-1.12-.09-2.26-.12-3.44-.03-1.17-.04-2.05-.04-2.64,0-.48.4-.72,1.2-.72.75,0,1.52.2,2.32.6.8.4,1.2.92,1.2,1.56s-.02,1.43-.04,2.36c-.03.93-.04,1.88-.04,2.84,1.06-2.02,2.73-3.77,4.99-5.23s4.81-2.2,7.63-2.2c1.44,0,2.85.25,4.24.76,1.38.51,2.53,1.12,3.44,1.84.9.72,1.36,1.43,1.36,2.12,0,.75-.24,1.52-.72,2.32s-.99,1.2-1.52,1.2c-.43,0-.8-.27-1.12-.8-.53-1.06-1.44-1.84-2.72-2.32-1.28-.48-2.34-.72-3.19-.72-2.29,0-4.53.77-6.71,2.32-2.18,1.55-3.73,3.78-4.63,6.71-.37,1.23-.64,2.56-.8,3.99-.16,1.44-.25,3.17-.28,5.19-.03,2.02-.04,4.55-.04,7.59,0,1.65.04,3.25.12,4.79.08,1.55.12,2.77.12,3.68,0,.48-.4.72-1.2.72-.69,0-1.45-.2-2.28-.6-.83-.4-1.24-.92-1.24-1.56,0-.43.01-1.13.04-2.12.03-.98.05-1.96.08-2.92.03-.96.04-1.62.04-2v-20.85c0-.53-.03-1.36-.08-2.48Z"/>
          <path class="cls-2" d="M1383.95,661.01c0,4.37,1,7.64,2.99,9.83,2,2.19,4.36,3.28,7.07,3.28,3.46,0,6.62-.63,9.47-1.88,2.85-1.25,5.34-3.02,7.47-5.31.64-.69,1.2-1.04,1.68-1.04.42,0,.64.27.64.8,0,.48-.4,1.33-1.2,2.56s-1.98,2.52-3.55,3.87c-1.57,1.36-3.57,2.53-5.99,3.52-2.42.98-5.26,1.48-8.51,1.48-2.72,0-5.16-.68-7.31-2.04-2.16-1.36-3.88-3.3-5.15-5.83-1.28-2.53-1.92-5.53-1.92-8.99v-1.2c-1.12-.74-1.68-1.54-1.68-2.4,0-.64.45-.96,1.36-.96.11,0,.4-.03.88-.08.32-1.92,1.05-3.94,2.2-6.07,1.14-2.13,2.6-4.13,4.35-5.99,1.76-1.86,3.76-3.4,5.99-4.59,2.24-1.2,4.66-1.8,7.27-1.8,3.25,0,5.83.56,7.75,1.68,1.92,1.12,3.29,2.56,4.11,4.31.82,1.76,1.24,3.6,1.24,5.51,0,1.55-.19,2.82-.56,3.83-.37,1.01-1.11,1.88-2.2,2.6-1.09.72-2.7,1.42-4.83,2.12-2.4.69-5.33,1.29-8.79,1.8-3.46.51-7.4.76-11.82.76h-.96v.24ZM1396.53,656.21c2.85-.42,5.18-.9,6.99-1.44,1.65-.48,2.84-.93,3.56-1.36.72-.43,1.18-.93,1.4-1.52.21-.59.32-1.36.32-2.32,0-2.34-.77-4.19-2.32-5.55-1.54-1.36-3.73-2.04-6.55-2.04-1.97,0-3.84.49-5.59,1.48-1.76.99-3.32,2.25-4.67,3.8-1.36,1.55-2.49,3.17-3.4,4.87-.91,1.7-1.49,3.28-1.76,4.71h1.68c4.05,0,7.5-.21,10.35-.64Z"/>
          <path class="cls-2" d="M1449.2,647.66c-.4-1.65-1.12-2.96-2.16-3.91s-2.57-1.44-4.59-1.44c-1.87,0-3.78.4-5.75,1.2-1.97.8-3.75,2.04-5.35,3.72s-2.8,3.87-3.6,6.59c-.64,2.13-1,4.51-1.08,7.15-.08,2.64-.15,5.13-.2,7.47v1.12c0,1.49.04,2.89.12,4.19.08,1.31.12,2.36.12,3.16,0,.48-.4.72-1.2.72-.69,0-1.45-.2-2.28-.6-.83-.4-1.24-.92-1.24-1.56,0-.42.01-1.13.04-2.12.03-.98.05-1.96.08-2.92.03-.96.04-1.62.04-2v-20.77c0-.53-.03-1.36-.08-2.48-.05-1.12-.09-2.26-.12-3.44-.03-1.17-.04-2.05-.04-2.64,0-.48.4-.72,1.2-.72.75,0,1.52.2,2.32.6.8.4,1.2.92,1.2,1.56v2.04c0,.93-.02,1.9-.04,2.92s-.04,1.89-.04,2.64c1.06-2.18,2.46-4.01,4.19-5.47,1.73-1.46,3.62-2.58,5.67-3.36,2.05-.77,4.06-1.16,6.03-1.16,2.56,0,4.61.47,6.15,1.4,1.54.93,2.72,2.14,3.52,3.63.8,1.49,1.33,3.1,1.6,4.83s.4,3.4.4,4.99v15.42c0,.32.03,1.04.08,2.16.05,1.12.09,2.29.12,3.52.03,1.23.04,2.16.04,2.8,0,.48-.4.72-1.2.72-.69,0-1.45-.2-2.28-.6-.83-.4-1.24-.92-1.24-1.56,0-.42.01-1.08.04-1.96.03-.88.05-1.8.08-2.76.03-.96.04-1.73.04-2.32v-15.1c0-2.13-.2-4.02-.6-5.67Z"/>
          <path class="cls-2" d="M1487.16,642.39c-1.17.05-2.88.16-5.11.32-.69,0-1.28-.36-1.76-1.08-.48-.72-.72-1.34-.72-1.88s.27-.8.8-.8h5.91l2.48-.08v-9.11c0-3.04.91-5.35,2.72-6.95,1.81-1.6,3.86-2.4,6.15-2.4,1.39,0,2.82.25,4.32.76,1.49.51,2.82,1.45,3.99,2.84.26.27.4.64.4,1.12,0,.69-.22,1.41-.64,2.16-.43.75-.93,1.12-1.52,1.12-.43,0-.8-.29-1.12-.88-.64-1.17-1.49-1.96-2.55-2.36-1.07-.4-2.05-.6-2.96-.6-1.07,0-2.08.43-3.04,1.28-.96.85-1.44,2.13-1.44,3.84v9.03l2.24-.08c.64-.05,1.42-.11,2.36-.16.93-.05,1.82-.12,2.68-.2s1.46-.12,1.84-.12h.08c.64,0,1.2.33,1.68,1,.48.67.72,1.29.72,1.88,0,.64-.27.96-.8.96h-5.03c-1.07,0-1.95.03-2.64.08l-3.11.16v26.21c0,1.65.04,3.25.12,4.79.08,1.55.12,2.77.12,3.68,0,.48-.4.72-1.2.72-.69,0-1.45-.2-2.28-.6-.83-.4-1.24-.92-1.24-1.56s.03-1.77.08-3.4c.05-1.62.08-3.13.08-4.51v-25.25l-1.6.08Z"/>
          <path class="cls-2" d="M1521,639.23c1.52-.72,3.4-1.08,5.63-1.08,4.53,0,8.22,1.68,11.07,5.03,2.85,3.36,4.27,8.04,4.27,14.06,0,2.56-.41,5.06-1.24,7.51-.83,2.45-2.04,4.69-3.64,6.71-1.6,2.02-3.57,3.63-5.91,4.83-2.34,1.2-5.06,1.8-8.15,1.8-5.33,0-9.44-1.6-12.35-4.79-2.9-3.2-4.35-7.54-4.35-13.02,0-2.4.39-4.75,1.16-7.07.77-2.32,1.7-4.42,2.8-6.31,1.09-1.89,2.16-3.4,3.2-4.51,1.04-1.12,1.82-1.68,2.36-1.68.59,0,1.01.27,1.28.8,1.06-.8,2.36-1.56,3.87-2.28ZM1530.27,671.75c2.21-1.52,3.98-3.54,5.31-6.07,1.33-2.53,2-5.34,2-8.43,0-4.47-.98-8.11-2.96-10.91-1.97-2.8-4.79-4.19-8.47-4.19-2.24,0-4.3.53-6.19,1.6-1.89,1.07-3.52,2.49-4.88,4.27-1.36,1.79-2.42,3.74-3.19,5.87-.77,2.13-1.16,4.23-1.16,6.31,0,4.42,1.09,7.83,3.27,10.23,2.18,2.4,5.19,3.59,9.03,3.59,2.61,0,5.02-.76,7.23-2.28Z"/>
          <path class="cls-2" d="M1552.03,645.03c-.05-1.12-.09-2.26-.12-3.44-.03-1.17-.04-2.05-.04-2.64,0-.48.4-.72,1.2-.72.75,0,1.52.2,2.32.6.8.4,1.2.92,1.2,1.56s-.02,1.43-.04,2.36c-.03.93-.04,1.88-.04,2.84,1.06-2.02,2.73-3.77,4.99-5.23s4.81-2.2,7.63-2.2c1.44,0,2.85.25,4.24.76,1.38.51,2.53,1.12,3.44,1.84.9.72,1.36,1.43,1.36,2.12,0,.75-.24,1.52-.72,2.32-.48.8-.99,1.2-1.52,1.2-.43,0-.8-.27-1.12-.8-.53-1.06-1.44-1.84-2.72-2.32-1.28-.48-2.34-.72-3.19-.72-2.29,0-4.53.77-6.71,2.32-2.18,1.55-3.73,3.78-4.63,6.71-.37,1.23-.64,2.56-.8,3.99-.16,1.44-.25,3.17-.28,5.19-.03,2.02-.04,4.55-.04,7.59,0,1.65.04,3.25.12,4.79.08,1.55.12,2.77.12,3.68,0,.48-.4.72-1.2.72-.69,0-1.45-.2-2.28-.6-.83-.4-1.24-.92-1.24-1.56,0-.43.01-1.13.04-2.12.03-.98.05-1.96.08-2.92.03-.96.04-1.62.04-2v-20.85c0-.53-.03-1.36-.08-2.48Z"/>
          <path class="cls-2" d="M1586.93,654.09c-1.46-1.36-2.2-3.26-2.2-5.71,0-2.02.67-3.81,2-5.35,1.33-1.54,3.09-2.74,5.27-3.6,2.18-.85,4.58-1.28,7.19-1.28,3.04,0,5.65.48,7.83,1.44,2.18.96,3.81,2.13,4.87,3.51.16.16.24.43.24.8,0,.96-.29,1.71-.88,2.24-.59.53-1.07.8-1.44.8-.22,0-.39-.09-.52-.28-.13-.19-.31-.41-.52-.68-.85-1.33-1.95-2.28-3.28-2.84-1.33-.56-2.58-.9-3.75-1.04-1.17-.13-2.03-.2-2.56-.2-3.09,0-5.57.64-7.43,1.92-1.87,1.28-2.8,2.85-2.8,4.71,0,1.12.46,2.09,1.4,2.92.93.83,2.54,1.51,4.83,2.04l7.67,1.84c3.41.8,6.1,2.05,8.07,3.76,1.97,1.7,2.96,4.21,2.96,7.51,0,2.08-.61,3.99-1.84,5.75-1.23,1.76-2.97,3.16-5.23,4.19-2.26,1.04-4.97,1.56-8.11,1.56s-5.5-.36-7.55-1.08c-2.05-.72-3.69-1.57-4.91-2.56-1.23-.99-2.1-1.92-2.63-2.8-.53-.88-.8-1.48-.8-1.8,0-.74.31-1.48.92-2.2.61-.72,1.18-1.08,1.72-1.08.32,0,.56.19.72.56.8,2.02,1.87,3.54,3.2,4.55s2.81,1.66,4.43,1.96c1.62.29,3.26.44,4.91.44,3.3,0,5.94-.76,7.91-2.28,1.97-1.52,2.96-3.21,2.96-5.07s-.6-3.5-1.8-4.75c-1.2-1.25-3.29-2.22-6.27-2.92l-7.99-1.92c-2.93-.69-5.12-1.72-6.59-3.08Z"/>
          <path class="cls-2" d="M1622.44,627.21c-.05-1.12-.09-2.26-.12-3.44-.03-1.17-.04-2.05-.04-2.64,0-.48.4-.72,1.2-.72.75,0,1.52.2,2.32.6.8.4,1.2.92,1.2,1.56,0,.43-.02,1.08-.04,1.96-.03.88-.05,1.8-.08,2.76-.03.96-.04,1.76-.04,2.4v23.09l15.74-11.03c.69-.48,1.37-1.02,2.04-1.64.66-.61,1.16-1.08,1.48-1.4s.8-.48,1.44-.48c.85,0,1.73.21,2.64.64.9.43,1.36.88,1.36,1.36,0,.21-.13.4-.4.56-1.12.75-2.18,1.45-3.2,2.12-1.01.67-1.86,1.24-2.55,1.72l-12.31,8.71c1.55,1.49,3.36,3.34,5.43,5.55,2.08,2.21,4.19,4.43,6.35,6.67,2.16,2.24,4.09,4.21,5.79,5.91,1.33,1.33,2.88,2.37,4.63,3.12.32.16.48.37.48.64,0,.53-.41,1.11-1.24,1.72-.83.61-1.61.92-2.36.92-.32,0-.56-.08-.72-.24-.69-.53-1.41-1.12-2.16-1.76-.75-.64-1.41-1.25-2-1.84-1.07-1.12-2.36-2.49-3.88-4.11-1.52-1.62-3.12-3.32-4.79-5.07-1.68-1.76-3.3-3.44-4.87-5.03-1.57-1.6-2.95-2.96-4.12-4.08l-2.8,1.84v10.79c0,.32.03,1.04.08,2.16.05,1.12.09,2.29.12,3.51.03,1.23.04,2.16.04,2.8,0,.48-.4.72-1.2.72-.69,0-1.45-.2-2.28-.6-.83-.4-1.24-.92-1.24-1.56,0-.43.01-1.13.04-2.12.03-.98.05-1.96.08-2.92.03-.96.04-1.62.04-2v-38.67c0-.53-.03-1.36-.08-2.48Z"/>
          <path class="cls-2" d="M1661.75,661.01c0,4.37,1,7.64,2.99,9.83,2,2.19,4.36,3.28,7.07,3.28,3.46,0,6.62-.63,9.47-1.88,2.85-1.25,5.34-3.02,7.47-5.31.64-.69,1.2-1.04,1.68-1.04.42,0,.64.27.64.8,0,.48-.4,1.33-1.2,2.56-.8,1.23-1.98,2.52-3.55,3.87-1.57,1.36-3.57,2.53-5.99,3.52-2.42.98-5.26,1.48-8.51,1.48-2.72,0-5.16-.68-7.31-2.04-2.16-1.36-3.88-3.3-5.15-5.83-1.28-2.53-1.92-5.53-1.92-8.99v-1.2c-1.12-.74-1.68-1.54-1.68-2.4,0-.64.45-.96,1.36-.96.11,0,.4-.03.88-.08.32-1.92,1.05-3.94,2.2-6.07,1.14-2.13,2.6-4.13,4.35-5.99,1.76-1.86,3.76-3.4,5.99-4.59,2.24-1.2,4.66-1.8,7.27-1.8,3.25,0,5.83.56,7.75,1.68,1.92,1.12,3.29,2.56,4.11,4.31.82,1.76,1.24,3.6,1.24,5.51,0,1.55-.19,2.82-.56,3.83-.37,1.01-1.11,1.88-2.2,2.6-1.09.72-2.7,1.42-4.83,2.12-2.4.69-5.33,1.29-8.79,1.8-3.46.51-7.4.76-11.82.76h-.96v.24ZM1674.33,656.21c2.85-.42,5.18-.9,6.99-1.44,1.65-.48,2.84-.93,3.56-1.36.72-.43,1.18-.93,1.4-1.52.21-.59.32-1.36.32-2.32,0-2.34-.77-4.19-2.32-5.55-1.54-1.36-3.73-2.04-6.55-2.04-1.97,0-3.84.49-5.59,1.48-1.76.99-3.32,2.25-4.67,3.8-1.36,1.55-2.49,3.17-3.4,4.87-.91,1.7-1.49,3.28-1.76,4.71h1.68c4.05,0,7.5-.21,10.35-.64Z"/>
          <path class="cls-2" d="M1700.34,627.21c-.05-1.12-.09-2.26-.12-3.44-.03-1.17-.04-2.05-.04-2.64,0-.48.42-.72,1.28-.72.69,0,1.45.2,2.28.6.82.4,1.24.92,1.24,1.56,0,.43-.01,1.08-.04,1.96-.03.88-.05,1.8-.08,2.76-.03.96-.04,1.76-.04,2.4v38.75c0,.32.03,1.04.08,2.16.05,1.12.09,2.29.12,3.52.03,1.23.04,2.16.04,2.8,0,.48-.43.72-1.28.72-.69,0-1.45-.2-2.27-.6-.83-.4-1.24-.92-1.24-1.56,0-.42.01-1.13.04-2.12.03-.98.05-1.96.08-2.92.03-.96.04-1.62.04-2v-38.75c0-.53-.03-1.36-.08-2.48Z"/>
        </g>
      </g>
      <g>
        <path class="cls-3" d="M248.84,490.85c10.54-2.63,21.35-5.27,32.44-7.9,11.1-2.64,26.51-6.77,46.26-12.41,19.74-5.64,44.66-12.41,74.75-20.3,30.1-7.9,65.07-17.31,104.94-28.21,32.06-9.13,56.91-15.07,74.59-17.85v-26.85c0-19.91-16.14-36.06-36.06-36.06h-128.15c6.47,7.08,10.41,14.84,11.68,23.32,1.84,12.14-2.4,24.56-12.73,37.26-10.32,12.71-26.82,22.8-49.87,22.6-25.49-.22-42.91-10.77-52.85-23.19-9.92-12.41-12.62-25.11-11.68-38.48.6-8.55,2.7-15.72,7.07-21.51h-104.26c-19.91,0-36.06,16.14-36.06,36.06v148.72c6.47-6.34,12.82-10.54,17.87-12.62,16.92-8.65,37.62-16.18,62.06-22.56Z"/>
        <path class="cls-3" d="M245.45,720.75c.91-3.64,4.14-9.88,9.03-18.9,4.9-9.03,19.94-29.9,45.13-62.62,13.54-17.31,23.89-32.53,31.03-45.7-7.14,3.01-23.32,11.29-48.52,24.82-14.67,8.27-29.53,16.36-44.57,24.26-21.05,9.77-39.49,21.43-39.49,21.43,0,0-11.09,6.39-10.72,5.64-6.82,2.94-12.95,4.4-18.44,4.45v43.99c0,19.91,16.14,36.06,36.06,36.06h46.94c-5.31-6.88-10.69-16.44-6.46-33.42Z"/>
        <path class="cls-3" d="M468.86,660.1c-24.07-18.05-37.23-37.05-39.49-56.98-3.39,13.91-7.52,27.45-12.41,40.62-14.28,40.72-41.82,77.52-82.56,110.44h211.36c19.91,0,36.06-16.14,36.06-36.06v-7.47c-19.17-3-39.94-9.58-55.59-16.01-20.08-8.25-37.8-19.87-57.37-34.54Z"/>
        <path class="cls-3" d="M545.58,514.55l-25.38,10.16c.76,2.26,11.1,29.34,28.77,51.9,7.52,9.77,15.51,19.55,23.97,29.33,3.05,3.53,5.99,6.95,8.87,10.33v-116.61c-12.63,5.03-24.72,10-36.23,14.88Z"/>
      </g>
    </g>
  </g>
</svg>