<svg width="63" height="50" viewBox="0 0 63 50" fill="none" xmlns="http://www.w3.org/2000/svg">
<circle cx="32.424" cy="25" r="22.5" fill="#47B490" stroke="#47B490" stroke-width="5"/>
<path d="M4.608 24.528C4.928 23.9093 5.44 23.3013 6.144 22.704C6.848 22.1067 7.63733 21.6053 8.512 21.2C10.5387 20.2613 12.352 20.1547 13.952 20.88C14.8053 21.264 15.264 21.52 15.328 21.648C15.4133 21.776 15.4453 21.9147 15.424 22.064C15.4027 22.2133 15.4027 22.4373 15.424 22.736C17.3227 21.9893 18.688 22.5333 19.52 24.368C20.2453 26.0107 20.4373 28.2507 20.096 31.088C19.7333 33.9253 19.0187 36.3467 17.952 38.352C17.1627 40.592 15.9147 42.6933 14.208 44.656C13.5467 45.4453 12.928 46.0427 12.352 46.448C11.7973 46.8747 11.4027 47.0667 11.168 47.024C10.7413 47.1093 10.3573 47.1947 10.016 47.28C9.54666 47.408 9.14133 47.472 8.8 47.472C8.75733 47.5147 8.71466 47.5467 8.672 47.568C8.65066 47.5893 8.62933 47.6213 8.608 47.664L7.648 47.952C7.60533 48.2933 7.328 48.528 6.816 48.656C6.304 48.8053 5.71733 48.8373 5.056 48.752C4.416 48.6667 3.76533 48.4747 3.104 48.176C2.44266 47.8987 1.952 47.4933 1.632 46.96C1.12 45.808 0.789329 44.8907 0.639996 44.208C0.213329 41.9467 0.255996 39.0453 0.767996 35.504C1.152 32.9013 1.83466 30.4907 2.816 28.272C3.30666 27.12 3.904 25.872 4.608 24.528ZM10.592 28.144C9.01333 31.3013 7.95733 34.6933 7.424 38.32C7.25333 39.5787 7.22133 40.752 7.328 41.84H7.392L7.424 41.808C9.68533 38.3947 11.392 34.6933 12.544 30.704C12.928 29.3173 13.0987 28.2187 13.056 27.408C13.0347 26.5973 12.896 26.0747 12.64 25.84C12.5547 25.9253 12.5013 25.968 12.48 25.968C12.48 25.968 12.4693 25.9467 12.448 25.904C12.3627 25.7973 12.2453 25.7547 12.096 25.776C11.7973 26.1813 11.52 26.5973 11.264 27.024L10.592 28.144ZM19.8915 28.688C19.7848 28.2613 19.8382 27.856 20.0515 27.472C20.2648 27.088 20.6382 26.704 21.1715 26.32C21.7262 25.9147 22.2275 25.68 22.6755 25.616L22.7075 25.584C22.8142 25.5413 22.9102 25.488 22.9955 25.424C23.1022 25.36 23.2088 25.296 23.3155 25.232C24.2115 24.464 25.0222 23.6107 25.7475 22.672C25.7688 22.6507 25.7795 22.6293 25.7795 22.608C25.7795 22.5867 25.8008 22.5547 25.8435 22.512C26.1422 21.8293 26.6755 21.328 27.4435 21.008C28.2115 20.6667 28.9475 20.5173 29.6515 20.56C30.3555 20.5813 30.9848 20.784 31.5395 21.168C32.1155 21.552 32.4675 22.1173 32.5955 22.864C32.5102 23.4613 32.2222 24.1867 31.7315 25.04C31.8595 25.3173 32.0302 25.648 32.2435 26.032C32.4568 26.3947 32.4995 26.768 32.3715 27.152C31.8168 28.2827 31.2515 29.4133 30.6755 30.544C30.1208 31.6747 29.6622 32.6667 29.2995 33.52C28.9368 34.3733 28.6062 35.152 28.3075 35.856C28.0302 36.5387 27.7422 37.232 27.4435 37.936C26.4195 40.496 25.6728 42.5867 25.2035 44.208C24.7555 45.808 24.2862 47.1093 23.7955 48.112V48.208H23.7635C23.5715 48.6987 23.1982 49.0507 22.6435 49.264C22.1102 49.4987 21.5555 49.584 20.9795 49.52C20.4035 49.4773 19.9022 49.296 19.4755 48.976C19.0488 48.656 18.8568 48.1973 18.8995 47.6C18.9635 47.024 19.0488 46.4693 19.1555 45.936C19.2835 45.3813 19.4755 44.3787 19.7315 42.928C20.2435 40.0053 21.2248 35.888 22.6755 30.576C22.0568 30.4907 21.4595 30.256 20.8835 29.872C20.3288 29.488 19.9982 29.0933 19.8915 28.688Z" fill="#F8FFE0"/>
</svg>
