<svg width="63" height="50" viewBox="0 0 63 50" fill="none" xmlns="http://www.w3.org/2000/svg">
<circle cx="32.424" cy="25" r="22.5" fill="#47B490" stroke="#47B490" stroke-width="5"/>
<path d="M4.60795 24.528C4.92795 23.9093 5.43995 23.3013 6.14395 22.704C6.84795 22.1067 7.63728 21.6053 8.51195 21.2C10.5386 20.2613 12.352 20.1547 13.952 20.88C14.8053 21.264 15.264 21.52 15.328 21.648C15.4133 21.776 15.4453 21.9147 15.424 22.064C15.4026 22.2133 15.4026 22.4373 15.424 22.736C17.3226 21.9893 18.688 22.5333 19.52 24.368C20.2453 26.0107 20.4373 28.2507 20.096 31.088C19.7333 33.9253 19.0186 36.3467 17.952 38.352C17.1626 40.592 15.9146 42.6933 14.208 44.656C13.5466 45.4453 12.928 46.0427 12.352 46.448C11.7973 46.8747 11.4026 47.0667 11.168 47.024C10.7413 47.1093 10.3573 47.1947 10.016 47.28C9.54662 47.408 9.14128 47.472 8.79995 47.472C8.75728 47.5147 8.71462 47.5467 8.67195 47.568C8.65062 47.5893 8.62928 47.6213 8.60795 47.664L7.64795 47.952C7.60528 48.2933 7.32795 48.528 6.81595 48.656C6.30395 48.8053 5.71728 48.8373 5.05595 48.752C4.41595 48.6667 3.76528 48.4747 3.10395 48.176C2.44262 47.8987 1.95195 47.4933 1.63195 46.96C1.11995 45.808 0.789284 44.8907 0.63995 44.208C0.213284 41.9467 0.25595 39.0453 0.76795 35.504C1.15195 32.9013 1.83462 30.4907 2.81595 28.272C3.30662 27.12 3.90395 25.872 4.60795 24.528ZM10.592 28.144C9.01328 31.3013 7.95728 34.6933 7.42395 38.32C7.25328 39.5787 7.22128 40.752 7.32795 41.84H7.39195L7.42395 41.808C9.68528 38.3947 11.392 34.6933 12.544 30.704C12.928 29.3173 13.0986 28.2187 13.056 27.408C13.0346 26.5973 12.896 26.0747 12.64 25.84C12.5546 25.9253 12.5013 25.968 12.48 25.968C12.48 25.968 12.4693 25.9467 12.448 25.904C12.3626 25.7973 12.2453 25.7547 12.096 25.776C11.7973 26.1813 11.52 26.5973 11.264 27.024L10.592 28.144ZM24.7235 36.976C23.8915 36.72 23.5288 36.1867 23.6355 35.376C23.7635 34.5653 24.2648 33.7653 25.1395 32.976C25.5021 32.5707 25.9928 32.0907 26.6115 31.536C27.2515 30.9813 27.8808 30.4053 28.4995 29.808C30.0995 28.2933 31.0168 27.1093 31.2515 26.256C30.2915 26.512 29.4808 26.7573 28.8195 26.992C28.1581 27.2053 27.5928 27.3653 27.1235 27.472C26.6541 27.5573 26.2488 27.568 25.9075 27.504C25.5875 27.44 25.3101 27.2907 25.0755 27.056C24.8621 26.8213 24.7021 26.5333 24.5955 26.192C24.4888 25.8507 24.4355 25.4987 24.4355 25.136C24.4355 24.2613 24.8301 23.728 25.6195 23.536C25.8328 23.4933 25.9928 23.3973 26.0995 23.248C26.2275 23.0987 26.3448 22.9387 26.4515 22.768C26.7715 22.2773 27.1555 21.9893 27.6035 21.904C28.1368 21.712 28.7341 21.488 29.3955 21.232C30.0781 20.976 30.7821 20.752 31.5075 20.56C33.8968 19.92 35.7955 20.304 37.2035 21.712C38.2061 22.7147 38.6008 24.0907 38.3875 25.84C38.2808 26.736 37.9715 27.7493 37.4595 28.88C36.9901 29.6267 36.4888 30.2347 35.9555 30.704C35.4221 31.1733 34.9315 31.568 34.4835 31.888C34.0568 32.208 33.5768 32.5707 33.0435 32.976C34.1741 33.104 35.0275 33.5307 35.6035 34.256C36.1795 34.96 36.5208 35.824 36.6275 36.848C36.8195 38.9387 36.1901 41.2213 34.7395 43.696C33.0968 46.4267 29.5661 48.0373 24.1475 48.528C22.6541 48.6347 21.4061 48.4747 20.4035 48.048C19.4008 47.6213 18.8141 47.024 18.6435 46.256C18.4515 45.744 18.4408 45.2213 18.6115 44.688C18.7608 44.1333 19.0061 43.6533 19.3475 43.248C19.7101 42.8427 20.1261 42.5547 20.5955 42.384C21.0648 42.192 21.5235 42.2133 21.9715 42.448C23.1875 42.5973 24.0088 42.64 24.4355 42.576C25.1821 42.4907 26.2061 42.1387 27.5075 41.52C27.9341 41.3067 28.3821 40.9867 28.8515 40.56C29.3208 40.112 29.6835 39.664 29.9395 39.216C30.2168 38.7467 30.3235 38.3413 30.2595 38C30.1955 37.6587 29.9075 37.4773 29.3955 37.456C28.8835 37.4347 28.2328 37.424 27.4435 37.424C26.6541 37.424 25.7475 37.2747 24.7235 36.976Z" fill="#F8FFE0"/>
</svg>
