<svg width="63" height="50" viewBox="0 0 63 50" fill="none" xmlns="http://www.w3.org/2000/svg">
<circle cx="32.424" cy="25" r="22.5" fill="#47B490" stroke="#47B490" stroke-width="5"/>
<path d="M4.60801 24.528C4.92801 23.9093 5.44001 23.3013 6.14401 22.704C6.84801 22.1067 7.63734 21.6053 8.51201 21.2C10.5387 20.2613 12.352 20.1547 13.952 20.88C14.8053 21.264 15.264 21.52 15.328 21.648C15.4133 21.776 15.4453 21.9147 15.424 22.064C15.4027 22.2133 15.4027 22.4373 15.424 22.736C17.3227 21.9893 18.688 22.5333 19.52 24.368C20.2453 26.0107 20.4373 28.2507 20.096 31.088C19.7333 33.9253 19.0187 36.3467 17.952 38.352C17.1627 40.592 15.9147 42.6933 14.208 44.656C13.5467 45.4453 12.928 46.0427 12.352 46.448C11.7973 46.8747 11.4027 47.0667 11.168 47.024C10.7413 47.1093 10.3573 47.1947 10.016 47.28C9.54668 47.408 9.14135 47.472 8.80001 47.472C8.75734 47.5147 8.71468 47.5467 8.67201 47.568C8.65068 47.5893 8.62934 47.6213 8.60801 47.664L7.64801 47.952C7.60535 48.2933 7.32801 48.528 6.81601 48.656C6.30401 48.8053 5.71735 48.8373 5.05601 48.752C4.41601 48.6667 3.76534 48.4747 3.10401 48.176C2.44268 47.8987 1.95201 47.4933 1.63201 46.96C1.12001 45.808 0.789345 44.8907 0.640011 44.208C0.213345 41.9467 0.256011 39.0453 0.768011 35.504C1.15201 32.9013 1.83468 30.4907 2.81601 28.272C3.30668 27.12 3.90401 25.872 4.60801 24.528ZM10.592 28.144C9.01334 31.3013 7.95734 34.6933 7.42401 38.32C7.25334 39.5787 7.22134 40.752 7.32801 41.84H7.39201L7.42401 41.808C9.68534 38.3947 11.392 34.6933 12.544 30.704C12.928 29.3173 13.0987 28.2187 13.056 27.408C13.0347 26.5973 12.896 26.0747 12.64 25.84C12.5547 25.9253 12.5013 25.968 12.48 25.968C12.48 25.968 12.4693 25.9467 12.448 25.904C12.3627 25.7973 12.2453 25.7547 12.096 25.776C11.7973 26.1813 11.52 26.5973 11.264 27.024L10.592 28.144ZM28.8835 28.656C28.6488 29.5733 27.7528 30.256 26.1955 30.704C24.7875 31.088 23.5288 31.0453 22.4195 30.576C21.9075 30.3413 21.5342 30 21.2995 29.552C21.0862 29.104 21.1182 28.528 21.3955 27.824C22.3982 25.904 23.5502 24.2827 24.8515 22.96C25.2995 22.4907 25.7475 22.1173 26.1955 21.84C26.7928 21.3707 27.5502 20.9867 28.4675 20.688C29.4062 20.368 30.3768 20.1973 31.3795 20.176C33.7048 20.1333 35.5288 20.7733 36.8515 22.096C38.0675 23.1413 38.6008 24.496 38.4515 26.16C38.2595 28.272 36.7022 31.1307 33.7795 34.736C32.5635 36.2293 31.1662 37.68 29.5875 39.088C28.0302 40.4747 26.5475 41.84 25.1395 43.184C24.5422 42.8427 24.3075 42.5547 24.4355 42.32C24.5635 42.064 24.9048 41.8613 25.4595 41.712C26.0142 41.5627 26.7075 41.4667 27.5395 41.424C28.3715 41.36 29.1928 41.3493 30.0035 41.392C31.9448 41.4987 33.0755 41.776 33.3955 42.224C33.6728 42.3947 33.8435 42.7147 33.9075 43.184C33.9928 43.6533 33.9715 44.1653 33.8435 44.72C33.5448 45.9787 32.9902 46.928 32.1795 47.568C31.6248 48.1227 30.1422 48.5493 27.7315 48.848C25.3208 49.1467 23.1875 49.1787 21.3315 48.944C20.4355 48.816 19.7208 48.6133 19.1875 48.336C18.6542 48.0587 18.4622 47.7173 18.6115 47.312C18.7608 46.928 18.7608 46.6293 18.6115 46.416C18.4622 46.2027 18.3022 45.9787 18.1315 45.744C17.7262 45.1253 17.7475 44.4 18.1955 43.568C18.8568 42.4587 19.4435 41.6267 19.9555 41.072C20.4675 40.5173 20.9902 39.92 21.5235 39.28C22.0782 38.64 22.7075 37.9467 23.4115 37.2C24.1368 36.4533 24.8515 35.7173 25.5555 34.992C27.1342 33.328 28.4782 31.7387 29.5875 30.224C30.0995 29.4773 30.4942 28.784 30.7715 28.144C31.0488 27.504 31.1662 26.7893 31.1235 26C30.8675 26.2773 30.6328 26.512 30.4195 26.704C30.2062 26.8747 30.0142 27.056 29.8435 27.248C29.3955 27.6747 29.0755 28.144 28.8835 28.656Z" fill="#F8FFE0"/>
</svg>
