<?xml version="1.0" encoding="UTF-8"?>
<svg id="Logo" xmlns="http://www.w3.org/2000/svg" viewBox="0 0 1920 1080">
  <g>
    <g>
      <path d="M549.9,875.07c-1.26-.08-2.45-.12-3.58-.12h-2.49c-2.83,0-5.12.02-6.86.06-1.74.04-3.1.1-4.07.18-.97.08-1.67.15-2.09.21-.43.06-.74.11-.94.15h-.18c-.53,0-1.04-.34-1.55-1.03-.51-.69-.76-1.23-.76-1.64,0-.28.07-.57.21-.85.14-.28.21-.67.21-1.15v-31.51c0-1.25-.03-2.47-.09-3.64-.06-1.17-.09-2.1-.09-2.79,0-.4.34-.61,1.03-.61.57,0,1.17.15,1.82.45.65.3.97.72.97,1.25,0,.49-.02,1.24-.06,2.28-.04,1.03-.06,2.07-.06,3.13v32.61c.93-.04,2.05-.08,3.37-.12,1.32-.04,2.7-.07,4.16-.09s2.83-.04,4.13-.06c1.3-.02,2.39-.03,3.28-.03h2.82c.95,0,1.69-.02,2.22-.06h.06c.53,0,.97.33,1.33,1,.36.67.55,1.29.55,1.85,0,.53-.18.79-.55.79h-.12c-.53-.08-1.42-.16-2.67-.24Z"/>
      <path d="M582.54,863.11c0,3.32.76,5.81,2.28,7.47,1.52,1.66,3.31,2.49,5.37,2.49,2.63,0,5.03-.48,7.19-1.43s4.06-2.3,5.68-4.04c.48-.53.91-.79,1.27-.79.32,0,.49.2.49.61,0,.36-.3,1.01-.91,1.94-.61.93-1.51,1.91-2.7,2.94-1.19,1.03-2.71,1.92-4.55,2.67-1.84.75-4,1.12-6.47,1.12s-4.63-.74-6.5-2.22c-1.86-1.48-3.16-3.51-3.88-6.1-1.42,2.92-3.29,5.03-5.62,6.35-2.33,1.32-4.58,1.97-6.77,1.97-2.92,0-5.25-.98-7.01-2.94-1.76-1.96-2.64-4.85-2.64-8.65,0-2.55.44-4.96,1.31-7.23.87-2.27,2.02-4.27,3.46-6.01,1.44-1.74,3.04-3.1,4.8-4.07,1.76-.97,3.53-1.46,5.31-1.46,1.5,0,2.92.37,4.28,1.09,1.35.73,2.36,1.86,3,3.4.04-.93.07-1.75.09-2.46.02-.71.03-1.2.03-1.49,0-.37.34-.55,1.03-.55.57,0,1.16.14,1.79.43.63.28.94.65.94,1.09v.12c-.04.49-.11,1.15-.21,2-.1.85-.17,1.74-.21,2.67,1.38-1.78,3.04-3.28,4.98-4.49,1.94-1.21,4.07-1.82,6.38-1.82,2.47,0,4.43.43,5.89,1.28,1.46.85,2.5,1.94,3.13,3.28.63,1.34.94,2.73.94,4.19,0,1.17-.14,2.15-.42,2.91-.29.77-.84,1.43-1.67,1.97-.83.55-2.05,1.08-3.67,1.61-1.82.53-4.05.98-6.68,1.37-2.63.38-5.63.58-8.99.58h-.73v.18ZM579.47,852.12c-.22.12-.44.18-.64.18-.24,0-.43-.08-.55-.24-.77-1.17-1.66-2.03-2.67-2.58-1.01-.55-1.98-.82-2.91-.82-1.34,0-2.68.39-4.04,1.18-1.36.79-2.6,1.89-3.74,3.31-1.13,1.42-2.03,3.07-2.7,4.95-.67,1.88-1,3.92-1,6.1,0,3.12.59,5.37,1.76,6.77,1.17,1.4,2.65,2.09,4.43,2.09,2.02,0,3.96-.65,5.8-1.94,1.84-1.29,3.37-3.12,4.58-5.46,1.21-2.35,1.88-5.08,2-8.2.04-.61.06-1.47.06-2.58s.02-2.18.06-3.19c-.08.16-.23.3-.45.43ZM592.1,859.47c2.17-.32,3.94-.69,5.31-1.09,1.25-.36,2.16-.71,2.7-1.03.55-.32.9-.71,1.06-1.15.16-.44.24-1.03.24-1.76,0-1.78-.59-3.19-1.76-4.22-1.18-1.03-2.83-1.55-4.98-1.55-1.5,0-2.91.38-4.25,1.12-1.33.75-2.52,1.71-3.55,2.88-1.03,1.17-1.89,2.41-2.58,3.7-.69,1.3-1.13,2.49-1.34,3.58h1.28c3.08,0,5.7-.16,7.86-.49Z"/>
      <path d="M611.97,850.97c-.04-.85-.07-1.72-.09-2.61-.02-.89-.03-1.56-.03-2,0-.36.3-.55.91-.55.57,0,1.15.15,1.76.46.61.3.91.7.91,1.18s-.01,1.08-.03,1.79c-.02.71-.03,1.43-.03,2.16.81-1.54,2.07-2.86,3.79-3.98s3.65-1.67,5.8-1.67c1.09,0,2.17.19,3.22.58,1.05.39,1.92.85,2.61,1.4.69.55,1.03,1.08,1.03,1.61,0,.57-.18,1.15-.55,1.76s-.75.91-1.15.91c-.32,0-.61-.2-.85-.61-.41-.81-1.09-1.4-2.07-1.76-.97-.36-1.78-.55-2.43-.55-1.74,0-3.44.59-5.1,1.76-1.66,1.17-2.83,2.87-3.52,5.1-.28.93-.49,1.94-.61,3.04-.12,1.09-.19,2.41-.21,3.95-.02,1.54-.03,3.46-.03,5.77,0,1.26.03,2.47.09,3.64.06,1.17.09,2.1.09,2.79,0,.36-.31.55-.91.55-.53,0-1.1-.15-1.73-.45-.63-.3-.94-.7-.94-1.18,0-.32,0-.86.03-1.61.02-.75.04-1.49.06-2.22.02-.73.03-1.23.03-1.52v-15.85c0-.4-.02-1.03-.06-1.88Z"/>
      <path d="M634.22,875.2c-.18-.12-.32-.2-.4-.24-.28-.24-.6-.63-.94-1.15-.34-.53-.52-1.11-.52-1.76,0-1.86.87-2.79,2.61-2.79.81,0,1.5.36,2.07,1.06.57.71.91,1.57,1.03,2.58,0,.08,0,.17.03.27s.03.19.03.27c0,.97-.24,1.92-.73,2.85-.49.93-1.09,1.77-1.82,2.52s-1.46,1.34-2.19,1.76-1.32.64-1.76.64c-.53,0-.79-.26-.79-.79,0-.32.16-.59.49-.79.77-.53,1.48-1.17,2.12-1.94s1.05-1.52,1.21-2.25c-.12-.04-.27-.12-.45-.24Z"/>
      <path d="M671.55,850.97c-.04-.85-.07-1.72-.09-2.61-.02-.89-.03-1.56-.03-2,0-.36.3-.55.91-.55.57,0,1.15.15,1.76.46.61.3.91.7.91,1.18s-.01,1.08-.03,1.79c-.02.71-.03,1.43-.03,2.16.81-1.54,2.07-2.86,3.79-3.98,1.72-1.11,3.65-1.67,5.8-1.67,1.09,0,2.17.19,3.22.58,1.05.39,1.92.85,2.61,1.4.69.55,1.03,1.08,1.03,1.61,0,.57-.18,1.15-.55,1.76s-.75.91-1.15.91c-.32,0-.61-.2-.85-.61-.41-.81-1.09-1.4-2.07-1.76-.97-.36-1.78-.55-2.43-.55-1.74,0-3.44.59-5.1,1.76-1.66,1.17-2.83,2.87-3.52,5.1-.28.93-.49,1.94-.61,3.04-.12,1.09-.19,2.41-.21,3.95-.02,1.54-.03,3.46-.03,5.77,0,1.26.03,2.47.09,3.64.06,1.17.09,2.1.09,2.79,0,.36-.31.55-.91.55-.53,0-1.1-.15-1.73-.45-.63-.3-.94-.7-.94-1.18,0-.32,0-.86.03-1.61.02-.75.04-1.49.06-2.22.02-.73.03-1.23.03-1.52v-15.85c0-.4-.02-1.03-.06-1.88Z"/>
      <path d="M695.75,863.11c0,3.32.76,5.81,2.28,7.47,1.52,1.66,3.31,2.49,5.38,2.49,2.63,0,5.03-.48,7.19-1.43,2.16-.95,4.06-2.3,5.68-4.04.49-.53.91-.79,1.28-.79.32,0,.49.2.49.61,0,.36-.31,1.01-.91,1.94s-1.51,1.91-2.7,2.94c-1.2,1.03-2.71,1.92-4.55,2.67-1.84.75-4,1.12-6.47,1.12-2.07,0-3.92-.52-5.56-1.55-1.64-1.03-2.95-2.51-3.92-4.43-.97-1.92-1.46-4.2-1.46-6.83v-.91c-.85-.57-1.28-1.17-1.28-1.82,0-.49.34-.73,1.03-.73.08,0,.3-.02.67-.06.24-1.46.8-3,1.67-4.62.87-1.62,1.97-3.14,3.31-4.55,1.34-1.42,2.86-2.58,4.55-3.49,1.7-.91,3.54-1.37,5.52-1.37,2.47,0,4.43.43,5.89,1.28,1.46.85,2.5,1.94,3.13,3.28.63,1.34.94,2.73.94,4.19,0,1.17-.14,2.15-.43,2.91-.28.77-.84,1.43-1.67,1.97-.83.55-2.06,1.08-3.67,1.61-1.82.53-4.05.98-6.68,1.37-2.63.38-5.63.58-8.99.58h-.73v.18ZM705.31,859.47c2.17-.32,3.94-.69,5.31-1.09,1.25-.36,2.16-.71,2.7-1.03.55-.32.9-.71,1.06-1.15.16-.44.24-1.03.24-1.76,0-1.78-.59-3.19-1.76-4.22-1.17-1.03-2.83-1.55-4.98-1.55-1.5,0-2.92.38-4.25,1.12-1.34.75-2.52,1.71-3.55,2.88-1.03,1.17-1.89,2.41-2.58,3.7s-1.13,2.49-1.33,3.58h1.27c3.08,0,5.7-.16,7.86-.49Z"/>
      <path d="M724.31,849.21c-.04-1.13-.08-2.04-.12-2.73,0-.36.3-.55.91-.55.57,0,1.16.15,1.79.46.63.3.94.7.94,1.18,0,.24-.01.67-.03,1.27s-.03,1.26-.03,1.94-.02,1.52-.06,2.49c.69-1.5,1.66-2.81,2.91-3.95,1.25-1.13,2.67-2.01,4.25-2.64,1.58-.63,3.16-.94,4.74-.94,3.28,0,5.81,1.09,7.59,3.28,1.78,2.19,2.67,5.26,2.67,9.23,0,2.31-.34,4.52-1.03,6.65-.69,2.13-1.65,4.03-2.88,5.71-1.24,1.68-2.71,3.01-4.43,3.98-1.72.97-3.61,1.46-5.68,1.46-1.54,0-3.09-.35-4.64-1.06-1.56-.71-2.74-1.75-3.55-3.13v6.68c0,1.25.03,2.47.09,3.64.06,1.17.09,2.1.09,2.79,0,.36-.31.55-.91.55-.53,0-1.1-.15-1.73-.46-.63-.3-.94-.7-.94-1.18s.02-1.24.06-2.28c.04-1.03.06-2.08.06-3.13v-25.68c0-1.25-.02-2.45-.06-3.58ZM728.07,868.94c.2,0,.43.07.67.21.24.14.46.38.67.7.81,1.13,1.74,1.96,2.79,2.49,1.05.53,2.12.79,3.22.79,2.19,0,4.11-.7,5.77-2.09,1.66-1.4,2.96-3.21,3.89-5.43.93-2.23,1.4-4.57,1.4-7.04,0-3.24-.63-5.68-1.88-7.32-1.26-1.64-2.91-2.46-4.98-2.46-1.7,0-3.37.48-5.01,1.43s-3.06,2.26-4.25,3.92c-1.19,1.66-2.01,3.56-2.46,5.71-.12.53-.19,1.68-.21,3.46-.02,1.78-.03,3.7-.03,5.77.16-.08.3-.12.43-.12Z"/>
      <path d="M781.5,850.94c-.1,1.48-.18,3.04-.24,4.68s-.11,3.17-.15,4.58c-.04,1.42-.06,2.49-.06,3.22,0,.53.03,1.35.09,2.46.06,1.11.24,2.32.55,3.61.3,1.3.8,2.49,1.49,3.58.08.16.12.3.12.43,0,.45-.21.94-.64,1.49-.43.55-.92.82-1.49.82-.41,0-.8-.29-1.18-.88-.39-.59-.73-1.34-1.03-2.25-.3-.91-.56-1.83-.76-2.76s-.32-1.74-.36-2.43c-1.46,2.96-3.31,5.13-5.56,6.53-2.25,1.4-4.52,2.09-6.83,2.09-2.91,0-5.25-.98-7.01-2.94-1.76-1.96-2.64-4.85-2.64-8.65,0-2.55.43-4.96,1.31-7.23.87-2.27,2.02-4.27,3.46-6.01,1.44-1.74,3.04-3.1,4.8-4.07,1.76-.97,3.53-1.46,5.31-1.46,1.5,0,2.92.37,4.28,1.09,1.36.73,2.36,1.86,3.01,3.4.04-.93.07-1.75.09-2.46.02-.71.03-1.2.03-1.49,0-.37.34-.55,1.03-.55.57,0,1.16.14,1.79.43.63.28.94.65.94,1.09v.12c-.12.89-.23,2.07-.33,3.55ZM777.49,852.12c-.22.12-.44.18-.64.18-.24,0-.43-.08-.55-.24-.77-1.17-1.66-2.03-2.67-2.58-1.01-.55-1.98-.82-2.91-.82-1.34,0-2.68.39-4.04,1.18-1.36.79-2.6,1.89-3.73,3.31-1.13,1.42-2.04,3.07-2.7,4.95-.67,1.88-1,3.92-1,6.1,0,3.12.59,5.37,1.76,6.77,1.17,1.4,2.65,2.09,4.43,2.09,2.02,0,3.96-.65,5.8-1.94,1.84-1.29,3.37-3.12,4.58-5.46,1.21-2.35,1.88-5.08,2-8.2.04-.61.06-1.47.06-2.58s.02-2.18.06-3.19c-.08.16-.23.3-.46.43Z"/>
      <path d="M790.29,850.97c-.04-.85-.07-1.72-.09-2.61-.02-.89-.03-1.56-.03-2,0-.36.3-.55.91-.55.57,0,1.15.15,1.76.46.61.3.91.7.91,1.18s-.01,1.08-.03,1.79c-.02.71-.03,1.43-.03,2.16.81-1.54,2.07-2.86,3.79-3.98s3.65-1.67,5.8-1.67c1.09,0,2.17.19,3.22.58,1.05.39,1.92.85,2.61,1.4.69.55,1.03,1.08,1.03,1.61,0,.57-.18,1.15-.55,1.76s-.75.91-1.15.91c-.32,0-.61-.2-.85-.61-.41-.81-1.09-1.4-2.07-1.76-.97-.36-1.78-.55-2.43-.55-1.74,0-3.44.59-5.1,1.76-1.66,1.17-2.83,2.87-3.52,5.1-.28.93-.49,1.94-.61,3.04-.12,1.09-.19,2.41-.21,3.95-.02,1.54-.03,3.46-.03,5.77,0,1.26.03,2.47.09,3.64.06,1.17.09,2.1.09,2.79,0,.36-.31.55-.91.55-.53,0-1.1-.15-1.73-.45-.63-.3-.94-.7-.94-1.18,0-.32,0-.86.03-1.61.02-.75.04-1.49.06-2.22.02-.73.03-1.23.03-1.52v-15.85c0-.4-.02-1.03-.06-1.88Z"/>
      <path d="M816.03,863.11c0,3.32.76,5.81,2.28,7.47,1.52,1.66,3.31,2.49,5.38,2.49,2.63,0,5.03-.48,7.19-1.43,2.16-.95,4.06-2.3,5.68-4.04.49-.53.91-.79,1.28-.79.32,0,.49.2.49.61,0,.36-.31,1.01-.91,1.94s-1.51,1.91-2.7,2.94c-1.2,1.03-2.71,1.92-4.55,2.67-1.84.75-4,1.12-6.47,1.12-2.07,0-3.92-.52-5.56-1.55-1.64-1.03-2.95-2.51-3.92-4.43-.97-1.92-1.46-4.2-1.46-6.83v-.91c-.85-.57-1.28-1.17-1.28-1.82,0-.49.34-.73,1.03-.73.08,0,.3-.02.67-.06.24-1.46.8-3,1.67-4.62.87-1.62,1.97-3.14,3.31-4.55,1.34-1.42,2.86-2.58,4.55-3.49,1.7-.91,3.54-1.37,5.52-1.37,2.47,0,4.43.43,5.89,1.28,1.46.85,2.5,1.94,3.13,3.28.63,1.34.94,2.73.94,4.19,0,1.17-.14,2.15-.43,2.91-.28.77-.84,1.43-1.67,1.97-.83.55-2.06,1.08-3.67,1.61-1.82.53-4.05.98-6.68,1.37-2.63.38-5.63.58-8.99.58h-.73v.18ZM825.6,859.47c2.17-.32,3.94-.69,5.31-1.09,1.25-.36,2.16-.71,2.7-1.03.55-.32.9-.71,1.06-1.15.16-.44.24-1.03.24-1.76,0-1.78-.59-3.19-1.76-4.22-1.17-1.03-2.83-1.55-4.98-1.55-1.5,0-2.92.38-4.25,1.12-1.34.75-2.52,1.71-3.55,2.88-1.03,1.17-1.89,2.41-2.58,3.7-.69,1.3-1.13,2.49-1.33,3.58h1.27c3.08,0,5.7-.16,7.86-.49Z"/>
      <path d="M846.65,850.97c-.04-.85-.07-1.72-.09-2.61-.02-.89-.03-1.56-.03-2,0-.36.3-.55.91-.55.57,0,1.15.15,1.76.46.61.3.91.7.91,1.18s-.01,1.08-.03,1.79c-.02.71-.03,1.43-.03,2.16.81-1.54,2.07-2.86,3.79-3.98,1.72-1.11,3.65-1.67,5.8-1.67,1.09,0,2.17.19,3.22.58,1.05.39,1.92.85,2.61,1.4.69.55,1.03,1.08,1.03,1.61,0,.57-.18,1.15-.55,1.76s-.75.91-1.15.91c-.32,0-.61-.2-.85-.61-.41-.81-1.09-1.4-2.07-1.76-.97-.36-1.78-.55-2.43-.55-1.74,0-3.44.59-5.1,1.76-1.66,1.17-2.83,2.87-3.52,5.1-.28.93-.49,1.94-.61,3.04-.12,1.09-.19,2.41-.21,3.95-.02,1.54-.03,3.46-.03,5.77,0,1.26.03,2.47.09,3.64.06,1.17.09,2.1.09,2.79,0,.36-.31.55-.91.55-.53,0-1.1-.15-1.73-.45-.63-.3-.94-.7-.94-1.18,0-.32,0-.86.03-1.61.02-.75.04-1.49.06-2.22.02-.73.03-1.23.03-1.52v-15.85c0-.4-.02-1.03-.06-1.88Z"/>
      <path d="M906.31,874.71c-2.45.89-4.83,1.34-7.14,1.34-4.53,0-7.78-.93-9.74-2.79-1.96-1.86-2.95-4.33-2.95-7.41s.9-5.99,2.7-8.38c1.8-2.39,4.12-4.59,6.95-6.62-1.42-1.78-2.43-3.48-3.04-5.1-.61-1.62-.91-3.12-.91-4.49,0-1.82.44-3.42,1.31-4.8.87-1.38,2.04-2.46,3.52-3.25,1.48-.79,3.09-1.18,4.83-1.18,2.55,0,4.53.6,5.95,1.79,1.42,1.19,2.12,3.01,2.12,5.43,0,1.54-.45,3.05-1.37,4.52s-2.08,2.86-3.49,4.16c-1.42,1.3-2.89,2.49-4.43,3.58,1.62,1.98,3.5,4.18,5.65,6.59,2.14,2.41,4.31,4.75,6.5,7.01,1.34-1.86,2.48-3.85,3.43-5.95.95-2.1,1.65-4.09,2.09-5.95.08-.44.17-.94.27-1.49s.4-.82.88-.82c.08,0,.32.09.73.27.4.18.81.44,1.21.79.41.34.61.78.61,1.31,0,.32-.21,1.04-.64,2.16s-.98,2.4-1.67,3.86c-.69,1.46-1.43,2.92-2.22,4.4s-1.57,2.74-2.34,3.8c1.42,1.5,2.8,2.8,4.16,3.92,1.36,1.11,2.64,1.89,3.86,2.34.65.24,1.21.53,1.7.85s.73.61.73.85c0,.32-.55.49-1.64.49-1.46,0-2.71-.19-3.76-.58-1.05-.38-2.12-1.01-3.19-1.88-1.07-.87-2.36-2.05-3.86-3.55-2.1,2.31-4.38,3.91-6.83,4.8ZM904.1,860.14c-2.31-2.59-4.31-4.9-6.01-6.92-1.46.97-2.81,2.09-4.07,3.34-1.25,1.26-2.27,2.64-3.04,4.16-.77,1.52-1.15,3.19-1.15,5.01,0,2.23.74,4.04,2.22,5.43,1.48,1.4,3.81,2.09,7.01,2.09,1.62,0,3.51-.41,5.68-1.24,2.17-.83,4.22-2.32,6.16-4.46-2.23-2.35-4.49-4.82-6.8-7.41ZM902.61,845.99c1.19-1.13,2.16-2.27,2.88-3.4.73-1.13,1.09-2.16,1.09-3.1,0-3.2-1.58-4.8-4.74-4.8-1.05,0-2.06.29-3.04.88-.97.59-1.76,1.39-2.37,2.4-.61,1.01-.91,2.19-.91,3.52,0,1.13.23,2.33.7,3.58.46,1.26,1.26,2.59,2.4,4.01,1.46-.93,2.78-1.96,3.98-3.1Z"/>
      <path d="M963.52,872.92c-2.21,1.11-4.4,1.67-6.59,1.67-3.16,0-5.68-1.04-7.56-3.13-1.88-2.09-2.82-5.13-2.82-9.14,0-2.06.38-4.08,1.15-6.04.77-1.96,1.82-3.73,3.16-5.31,1.34-1.58,2.88-2.84,4.64-3.8,1.76-.95,3.61-1.43,5.56-1.43,1.74,0,3.35.37,4.83,1.09,1.48.73,2.6,1.92,3.37,3.58,0-.93,0-1.74-.03-2.43-.02-.69-.03-1.26-.03-1.7,0-.37.32-.55.97-.55.53,0,1.09.15,1.7.46.61.3.91.68.91,1.12v.06c-.04.77-.09,1.7-.15,2.79s-.09,2.17-.09,3.22v18.7c0,2.92-.68,5.38-2.03,7.41-1.36,2.02-3.16,3.55-5.4,4.58-2.25,1.03-4.71,1.55-7.38,1.55-2.23,0-4.05-.29-5.47-.88-1.42-.59-2.52-1.27-3.31-2.03-.79-.77-1.35-1.47-1.67-2.09-.32-.63-.49-.96-.49-1,0-.53.24-1.05.73-1.58s.95-.79,1.4-.79c.36,0,.63.2.79.61.77,1.7,1.77,2.9,3.01,3.61,1.23.71,2.9,1.06,5.01,1.06s4.03-.39,5.77-1.15c1.74-.77,3.14-1.93,4.19-3.49,1.05-1.56,1.58-3.51,1.58-5.86v-5.04c-1.62,2.83-3.53,4.81-5.74,5.92ZM968.71,852.06c-.24.2-.49.3-.73.3-.2,0-.39-.1-.55-.3-.89-1.17-1.88-2.02-2.98-2.55-1.09-.52-2.21-.79-3.34-.79-1.5,0-2.93.39-4.28,1.18-1.36.79-2.55,1.85-3.58,3.19-1.03,1.34-1.84,2.8-2.43,4.4-.59,1.6-.88,3.19-.88,4.77,0,3.28.64,5.65,1.91,7.1,1.28,1.46,2.97,2.19,5.07,2.19,1.5,0,3.08-.38,4.74-1.15,1.66-.77,3.17-1.9,4.52-3.4,1.35-1.5,2.28-3.32,2.76-5.46.16-.52.25-1.45.27-2.76.02-1.32.03-2.74.03-4.28v-3.04c-.12.2-.3.41-.55.61Z"/>
      <path d="M979.2,862.57c0-1.82.29-3.61.88-5.37.59-1.76,1.3-3.36,2.12-4.8.83-1.44,1.64-2.58,2.43-3.43.79-.85,1.39-1.27,1.79-1.27.44,0,.77.2.97.61.81-.61,1.79-1.18,2.94-1.73,1.15-.55,2.58-.82,4.28-.82,2.55,0,4.76.71,6.62,2.13.61-.93,1.04-1.58,1.31-1.94.26-.36.44-.59.55-.67.1-.08.19-.12.27-.12.32,0,.7.26,1.12.79.43.53.64,1.05.64,1.58,0,.2-.09.43-.27.67-.18.24-.7.83-1.55,1.76.93,1.26,1.66,2.74,2.19,4.46.53,1.72.79,3.67.79,5.86,0,1.94-.32,3.85-.94,5.71-.63,1.86-1.55,3.56-2.76,5.1-1.21,1.54-2.71,2.76-4.49,3.67s-3.85,1.37-6.19,1.37c-3.16,0-5.81-.79-7.95-2.37-.77,1.17-1.29,1.91-1.55,2.22-.26.3-.48.45-.64.45-.41,0-.82-.25-1.24-.76s-.64-1-.64-1.49c0-.28.08-.51.24-.67l1.7-1.82c-1.74-2.35-2.61-5.38-2.61-9.11ZM994.26,848.78c-1.7,0-3.27.41-4.71,1.21-1.44.81-2.67,1.89-3.71,3.25-1.03,1.36-1.84,2.84-2.43,4.46-.59,1.62-.88,3.22-.88,4.8,0,2.59.51,4.74,1.52,6.44l15.12-18.52c-1.25-1.09-2.89-1.64-4.92-1.64ZM991.89,873.01c1.98,0,3.81-.58,5.5-1.73,1.68-1.15,3.02-2.69,4.04-4.62,1.01-1.92,1.52-4.06,1.52-6.41,0-3.12-.61-5.67-1.82-7.65l-15.12,18.58c1.54,1.21,3.5,1.82,5.89,1.82Z"/>
      <path d="M1013.64,850.97c-.04-.85-.07-1.72-.09-2.61-.02-.89-.03-1.56-.03-2,0-.36.3-.55.91-.55.57,0,1.15.15,1.76.46.61.3.91.7.91,1.18s-.01,1.08-.03,1.79c-.02.71-.03,1.43-.03,2.16.81-1.54,2.07-2.86,3.79-3.98s3.65-1.67,5.8-1.67c1.09,0,2.17.19,3.22.58,1.05.39,1.92.85,2.61,1.4.69.55,1.03,1.08,1.03,1.61,0,.57-.18,1.15-.55,1.76s-.75.91-1.15.91c-.32,0-.61-.2-.85-.61-.41-.81-1.09-1.4-2.07-1.76-.97-.36-1.78-.55-2.43-.55-1.74,0-3.44.59-5.1,1.76-1.66,1.17-2.83,2.87-3.52,5.1-.28.93-.49,1.94-.61,3.04-.12,1.09-.19,2.41-.21,3.95-.02,1.54-.03,3.46-.03,5.77,0,1.26.03,2.47.09,3.64.06,1.17.09,2.1.09,2.79,0,.36-.31.55-.91.55-.53,0-1.1-.15-1.73-.45-.63-.3-.94-.7-.94-1.18,0-.32,0-.86.03-1.61.02-.75.04-1.49.06-2.22.02-.73.03-1.23.03-1.52v-15.85c0-.4-.02-1.03-.06-1.88Z"/>
      <path d="M1064.97,863.11c0,3.32.76,5.81,2.28,7.47,1.52,1.66,3.31,2.49,5.38,2.49,2.63,0,5.03-.48,7.19-1.43,2.16-.95,4.06-2.3,5.68-4.04.49-.53.91-.79,1.28-.79.32,0,.49.2.49.61,0,.36-.31,1.01-.91,1.94s-1.51,1.91-2.7,2.94c-1.2,1.03-2.71,1.92-4.55,2.67-1.84.75-4,1.12-6.47,1.12-2.07,0-3.92-.52-5.56-1.55-1.64-1.03-2.95-2.51-3.92-4.43-.97-1.92-1.46-4.2-1.46-6.83v-.91c-.85-.57-1.28-1.17-1.28-1.82,0-.49.34-.73,1.03-.73.08,0,.3-.02.67-.06.24-1.46.8-3,1.67-4.62.87-1.62,1.97-3.14,3.31-4.55,1.34-1.42,2.86-2.58,4.55-3.49,1.7-.91,3.54-1.37,5.52-1.37,2.47,0,4.43.43,5.89,1.28,1.46.85,2.5,1.94,3.13,3.28.63,1.34.94,2.73.94,4.19,0,1.17-.14,2.15-.43,2.91-.28.77-.84,1.43-1.67,1.97-.83.55-2.06,1.08-3.67,1.61-1.82.53-4.05.98-6.68,1.37-2.63.38-5.63.58-8.99.58h-.73v.18ZM1074.53,859.47c2.17-.32,3.94-.69,5.31-1.09,1.25-.36,2.16-.71,2.7-1.03.55-.32.9-.71,1.06-1.15.16-.44.24-1.03.24-1.76,0-1.78-.59-3.19-1.76-4.22-1.17-1.03-2.83-1.55-4.98-1.55-1.5,0-2.92.38-4.25,1.12-1.34.75-2.52,1.71-3.55,2.88-1.03,1.17-1.89,2.41-2.58,3.7-.69,1.3-1.13,2.49-1.33,3.58h1.27c3.08,0,5.7-.16,7.86-.49Z"/>
      <path d="M1114.55,852.97c-.31-1.25-.85-2.25-1.64-2.98s-1.95-1.09-3.49-1.09c-1.42,0-2.87.3-4.37.91-1.5.61-2.85,1.55-4.07,2.82-1.21,1.27-2.12,2.94-2.73,5.01-.48,1.62-.76,3.43-.82,5.43-.06,2-.11,3.9-.15,5.68v.85c0,1.13.03,2.2.09,3.19.06.99.09,1.79.09,2.4,0,.36-.31.55-.91.55-.53,0-1.1-.15-1.73-.46-.63-.3-.94-.7-.94-1.18,0-.32,0-.86.03-1.61.02-.75.04-1.49.06-2.22.02-.73.03-1.23.03-1.52v-15.79c0-.4-.02-1.03-.06-1.88-.04-.85-.07-1.72-.09-2.61-.02-.89-.03-1.56-.03-2,0-.36.3-.55.91-.55.57,0,1.15.15,1.76.46.61.3.91.7.91,1.18v1.55c0,.71-.01,1.45-.03,2.22s-.03,1.44-.03,2c.81-1.66,1.87-3.05,3.19-4.16,1.32-1.11,2.75-1.96,4.31-2.55,1.56-.59,3.09-.88,4.59-.88,1.94,0,3.5.36,4.67,1.06,1.17.71,2.07,1.63,2.67,2.76.61,1.13,1.01,2.36,1.21,3.67s.3,2.58.3,3.79v11.72c0,.24.02.79.06,1.64.04.85.07,1.74.09,2.67.02.93.03,1.64.03,2.13,0,.36-.31.55-.91.55-.53,0-1.1-.15-1.73-.46-.63-.3-.94-.7-.94-1.18,0-.32,0-.82.03-1.49.02-.67.04-1.37.06-2.09.02-.73.03-1.32.03-1.76v-11.48c0-1.62-.15-3.06-.45-4.31Z"/>
      <path d="M1143.41,848.96c-.89.04-2.19.12-3.89.24-.53,0-.97-.27-1.34-.82-.36-.55-.55-1.02-.55-1.43s.2-.61.61-.61h4.49l1.88-.06v-6.92c0-2.31.69-4.07,2.07-5.28,1.38-1.21,2.93-1.82,4.67-1.82,1.05,0,2.15.19,3.28.58,1.13.38,2.14,1.1,3.04,2.16.2.2.3.49.3.85,0,.53-.16,1.07-.49,1.64-.32.57-.71.85-1.15.85-.32,0-.61-.22-.85-.67-.48-.89-1.13-1.49-1.94-1.79-.81-.3-1.56-.46-2.25-.46-.81,0-1.58.32-2.31.97-.73.65-1.09,1.62-1.09,2.92v6.86l1.7-.06c.49-.04,1.08-.08,1.79-.12.71-.04,1.39-.09,2.03-.15s1.11-.09,1.4-.09h.06c.49,0,.91.25,1.28.76.36.51.55.98.55,1.43,0,.49-.2.73-.61.73h-3.83c-.81,0-1.48.02-2,.06l-2.37.12v19.92c0,1.26.03,2.47.09,3.64s.09,2.1.09,2.79c0,.36-.3.55-.91.55-.53,0-1.1-.15-1.73-.46-.63-.3-.94-.7-.94-1.18s.02-1.34.06-2.58c.04-1.23.06-2.38.06-3.43v-19.19l-1.21.06Z"/>
      <path d="M1169.12,846.57c1.15-.55,2.58-.82,4.28-.82,3.44,0,6.24,1.28,8.41,3.83,2.16,2.55,3.25,6.11,3.25,10.69,0,1.94-.32,3.85-.94,5.71-.63,1.86-1.55,3.56-2.76,5.1-1.21,1.54-2.71,2.76-4.49,3.67-1.78.91-3.85,1.37-6.19,1.37-4.05,0-7.17-1.21-9.38-3.64-2.21-2.43-3.31-5.73-3.31-9.9,0-1.82.29-3.61.88-5.37.59-1.76,1.3-3.36,2.12-4.8.83-1.44,1.64-2.58,2.43-3.43.79-.85,1.39-1.27,1.79-1.27.44,0,.77.2.97.61.81-.61,1.79-1.18,2.94-1.73ZM1176.17,871.28c1.68-1.15,3.02-2.69,4.04-4.62,1.01-1.92,1.52-4.06,1.52-6.41,0-3.4-.75-6.16-2.25-8.29-1.5-2.12-3.64-3.19-6.43-3.19-1.7,0-3.27.41-4.71,1.21-1.44.81-2.67,1.89-3.71,3.25-1.03,1.36-1.84,2.84-2.43,4.46-.59,1.62-.88,3.22-.88,4.8,0,3.36.83,5.95,2.49,7.77s3.95,2.73,6.86,2.73c1.98,0,3.81-.58,5.5-1.73Z"/>
      <path d="M1192.71,850.97c-.04-.85-.07-1.72-.09-2.61-.02-.89-.03-1.56-.03-2,0-.36.3-.55.91-.55.57,0,1.15.15,1.76.46.61.3.91.7.91,1.18s-.01,1.08-.03,1.79c-.02.71-.03,1.43-.03,2.16.81-1.54,2.07-2.86,3.79-3.98,1.72-1.11,3.65-1.67,5.8-1.67,1.09,0,2.17.19,3.22.58,1.05.39,1.92.85,2.61,1.4.69.55,1.03,1.08,1.03,1.61,0,.57-.18,1.15-.55,1.76s-.75.91-1.15.91c-.32,0-.61-.2-.85-.61-.41-.81-1.09-1.4-2.07-1.76-.97-.36-1.78-.55-2.43-.55-1.74,0-3.44.59-5.1,1.76-1.66,1.17-2.83,2.87-3.52,5.1-.28.93-.49,1.94-.61,3.04-.12,1.09-.19,2.41-.21,3.95-.02,1.54-.03,3.46-.03,5.77,0,1.26.03,2.47.09,3.64.06,1.17.09,2.1.09,2.79,0,.36-.31.55-.91.55-.53,0-1.1-.15-1.73-.45-.63-.3-.94-.7-.94-1.18,0-.32,0-.86.03-1.61.02-.75.04-1.49.06-2.22.02-.73.03-1.23.03-1.52v-15.85c0-.4-.02-1.03-.06-1.88Z"/>
      <path d="M1219.23,857.86c-1.11-1.03-1.67-2.48-1.67-4.34,0-1.54.51-2.89,1.52-4.07,1.01-1.17,2.35-2.08,4.01-2.73,1.66-.65,3.48-.97,5.46-.97,2.31,0,4.29.37,5.95,1.09s2.89,1.62,3.7,2.67c.12.12.18.32.18.61,0,.73-.22,1.3-.67,1.7-.45.41-.81.61-1.09.61-.16,0-.3-.07-.4-.21-.1-.14-.23-.31-.39-.52-.65-1.01-1.48-1.73-2.49-2.16-1.01-.42-1.96-.69-2.85-.79-.89-.1-1.54-.15-1.94-.15-2.35,0-4.23.49-5.65,1.46-1.42.97-2.12,2.17-2.12,3.58,0,.85.35,1.59,1.06,2.22.71.63,1.93,1.14,3.67,1.55l5.83,1.4c2.59.61,4.63,1.56,6.13,2.85,1.5,1.3,2.25,3.2,2.25,5.71,0,1.58-.46,3.04-1.4,4.37-.93,1.34-2.26,2.4-3.98,3.19s-3.77,1.18-6.16,1.18-4.18-.27-5.74-.82c-1.56-.55-2.8-1.19-3.74-1.94-.93-.75-1.6-1.46-2-2.13-.41-.67-.61-1.12-.61-1.37,0-.57.23-1.12.7-1.67.46-.55.9-.82,1.31-.82.24,0,.43.14.55.43.61,1.54,1.42,2.69,2.43,3.46s2.13,1.27,3.37,1.49c1.23.22,2.48.33,3.74.33,2.51,0,4.51-.58,6.01-1.73,1.5-1.15,2.25-2.44,2.25-3.86s-.45-2.66-1.37-3.61c-.91-.95-2.5-1.69-4.77-2.22l-6.07-1.46c-2.22-.53-3.89-1.31-5.01-2.34Z"/>
      <path d="M1246.22,837.43c-.04-.85-.07-1.72-.09-2.61-.02-.89-.03-1.56-.03-2,0-.36.3-.55.91-.55.57,0,1.15.15,1.76.46.61.3.91.7.91,1.18,0,.32-.01.82-.03,1.49-.02.67-.04,1.37-.06,2.09-.02.73-.03,1.34-.03,1.82v17.55l11.96-8.38c.53-.36,1.04-.78,1.55-1.24.5-.47.88-.82,1.12-1.06s.61-.36,1.09-.36c.65,0,1.32.16,2,.49.69.32,1.03.67,1.03,1.03,0,.16-.1.3-.3.43-.85.57-1.66,1.1-2.43,1.61-.77.51-1.42.94-1.94,1.31l-9.35,6.62c1.18,1.13,2.55,2.54,4.13,4.22,1.58,1.68,3.19,3.37,4.83,5.07,1.64,1.7,3.11,3.2,4.4,4.49,1.01,1.01,2.19,1.8,3.52,2.37.24.12.36.28.36.49,0,.41-.32.84-.94,1.31-.63.46-1.22.7-1.79.7-.24,0-.43-.06-.55-.18-.53-.41-1.07-.85-1.64-1.34-.57-.49-1.07-.95-1.52-1.4-.81-.85-1.79-1.89-2.95-3.13-1.15-1.23-2.37-2.52-3.64-3.86-1.28-1.33-2.51-2.61-3.7-3.82-1.2-1.21-2.24-2.25-3.13-3.1l-2.12,1.4v8.2c0,.24.02.79.06,1.64.04.85.07,1.74.09,2.67.02.93.03,1.64.03,2.13,0,.36-.31.55-.91.55-.53,0-1.1-.15-1.73-.45-.63-.3-.94-.7-.94-1.18,0-.32,0-.86.03-1.61.02-.75.04-1.49.06-2.22.02-.73.03-1.23.03-1.52v-29.39c0-.4-.02-1.03-.06-1.88Z"/>
      <path d="M1276.09,863.11c0,3.32.76,5.81,2.28,7.47,1.52,1.66,3.31,2.49,5.38,2.49,2.63,0,5.03-.48,7.19-1.43,2.16-.95,4.06-2.3,5.68-4.04.49-.53.91-.79,1.28-.79.32,0,.49.2.49.61,0,.36-.31,1.01-.91,1.94-.61.93-1.51,1.91-2.7,2.94-1.2,1.03-2.71,1.92-4.55,2.67-1.84.75-4,1.12-6.47,1.12-2.07,0-3.92-.52-5.56-1.55-1.64-1.03-2.95-2.51-3.92-4.43-.97-1.92-1.46-4.2-1.46-6.83v-.91c-.85-.57-1.28-1.17-1.28-1.82,0-.49.34-.73,1.03-.73.08,0,.3-.02.67-.06.24-1.46.8-3,1.67-4.62.87-1.62,1.97-3.14,3.31-4.55,1.34-1.42,2.86-2.58,4.55-3.49,1.7-.91,3.54-1.37,5.52-1.37,2.47,0,4.43.43,5.89,1.28,1.46.85,2.5,1.94,3.13,3.28.63,1.34.94,2.73.94,4.19,0,1.17-.14,2.15-.43,2.91-.28.77-.84,1.43-1.67,1.97-.83.55-2.06,1.08-3.67,1.61-1.82.53-4.05.98-6.68,1.37-2.63.38-5.63.58-8.99.58h-.73v.18ZM1285.66,859.47c2.17-.32,3.94-.69,5.31-1.09,1.25-.36,2.16-.71,2.7-1.03.55-.32.9-.71,1.06-1.15.16-.44.24-1.03.24-1.76,0-1.78-.59-3.19-1.76-4.22-1.17-1.03-2.83-1.55-4.98-1.55-1.5,0-2.92.38-4.25,1.12-1.34.75-2.52,1.71-3.55,2.88-1.03,1.17-1.89,2.41-2.58,3.7s-1.13,2.49-1.33,3.58h1.27c3.08,0,5.7-.16,7.86-.49Z"/>
      <path d="M1305.42,837.43c-.04-.85-.07-1.72-.09-2.61-.02-.89-.03-1.56-.03-2,0-.36.32-.55.97-.55.53,0,1.1.15,1.73.46.63.3.94.7.94,1.18,0,.32,0,.82-.03,1.49-.02.67-.04,1.37-.06,2.09-.02.73-.03,1.34-.03,1.82v29.45c0,.24.02.79.06,1.64.04.85.07,1.74.09,2.67.02.93.03,1.64.03,2.13,0,.36-.32.55-.97.55-.53,0-1.1-.15-1.73-.46-.63-.3-.94-.7-.94-1.18,0-.32,0-.86.03-1.61.02-.75.04-1.49.06-2.22.02-.73.03-1.23.03-1.52v-29.45c0-.4-.02-1.03-.06-1.88Z"/>
    </g>
    <g>
      <path d="M515.95,683.43c1.91-4.62,10.37-13.33,26.21-13.33,2.31,0,4.64.07,7,.38,2.36.3,4.34.96,5.95,1.96,3.92,2.31,4.99,6.13,2.56,11.15-4.23,8.73-19.53,36.36-20.34,38.26,3.51-1.91,7.58-4.67,12.2-8.29,8.74-6.73,14.31-10.74,16.72-12.05,2.41-1.3,4.07-2.17,5.05-2.41,4.95-1.24,7.54.59,9.42,2.11s3.71,3.72,3.92,8.74c.1,4.92-.9,8.64-3.01,11.15-9.14,11.85-19.43,19.78-30.88,23.8-3.51,1.31-7.13,2.41-10.85,3.32,5.32.6,10.39,4.12,15.22,10.54,3.92,5.22,7.02,9.96,9.22,15.32,2.23,5.42,4.53,13.15,4.71,19.26.17,5.82-6.27,6.08-10.47,5.5-1.72-.24-5.22-1.71-10.54-6.03-2.31-1.91-4.77-3.99-7.38-6.25-2.61-2.26-5.22-4.39-7.83-6.4-6.03-4.72-13.26-7.48-13.86-7.68l-2.71,6.78c-1.41,3.32-2.84,6.81-4.29,10.47-1.46,3.66-2.69,7.38-5.2,9.87-2.67,2.65-6.73,2.96-10.85,2.56-4.72-.5-7.83-2.41-9.34-5.72-1-3.12.65-12.25,4.97-27.42,2.91-10.64,5.42-19.98,7.53-28.02,2.11-8.03,3.92-14.69,5.42-19.96,1.51-5.27,2.61-9.39,3.32-12.35.7-2.96,1.41-5.85,2.11-8.66,1.71-6.53,3.71-12.05,6.03-16.57Z"/>
      <path d="M892.11,683.43c1.91-4.62,10.37-13.33,26.21-13.33,2.31,0,4.64.07,7,.38,2.36.3,4.34.96,5.95,1.96,3.92,2.31,4.99,6.13,2.56,11.15-4.23,8.73-19.53,36.36-20.34,38.26,3.51-1.91,7.58-4.67,12.2-8.29,8.74-6.73,14.31-10.74,16.72-12.05,2.41-1.3,4.07-2.17,5.05-2.41,4.95-1.24,7.54.59,9.42,2.11s3.71,3.72,3.92,8.74c.1,4.92-.9,8.64-3.01,11.15-9.14,11.85-19.43,19.78-30.88,23.8-3.51,1.31-7.13,2.41-10.85,3.32,5.32.6,10.39,4.12,15.22,10.54,3.92,5.22,7.02,9.96,9.22,15.32,2.23,5.42,4.53,13.15,4.71,19.26s-6.27,6.08-10.47,5.5c-1.72-.24-5.22-1.71-10.54-6.03-2.31-1.91-4.77-3.99-7.38-6.25-2.61-2.26-5.22-4.39-7.83-6.4-6.03-4.72-13.26-7.48-13.86-7.68l-2.71,6.78c-1.41,3.32-2.84,6.81-4.29,10.47-1.46,3.66-2.69,7.38-5.2,9.87-2.67,2.65-6.73,2.96-10.85,2.56-4.72-.5-7.83-2.41-9.34-5.72-1-3.12.65-12.25,4.97-27.42,2.91-10.64,5.42-19.98,7.53-28.02,2.11-8.03,3.92-14.69,5.42-19.96,1.51-5.27,2.61-9.39,3.32-12.35.7-2.96,1.41-5.85,2.11-8.66,1.71-6.53,3.71-12.05,6.03-16.57Z"/>
      <path d="M609.37,784.51c-.66,2.11-1.38,3.97-2.18,5.57-.8,1.61-2.01,3.11-3.62,4.52-1.61,1.41-3.52,2.74-5.72,3.99-2.21,1.25-4.32,2.13-6.33,2.64-4.62,1-8.27-.99-11.11-3.02-3.81-2.72-3.48-7.01-2.45-10.99,1.44-5.57,3.36-12.22,5.27-20.11,1.91-7.88,4.37-16.54,7.38-25.99,7.13-22.9,15.97-43.54,26.51-61.91.7-.9,1.51-2.08,2.41-3.54.9-1.45,2.06-2.79,3.46-3.99,3.51-3.21,7.95-4.27,12.95-2.26,9.18,3.69,7.44,11.64,6.48,13.86-11.26,26.01-20.24,53.38-28.77,84.51-1,3.62-1.81,6.78-2.41,9.49-.6,2.71-1.23,5.12-1.88,7.23Z"/>
      <path d="M640.23,725.15c1.64-3.16,4.42-5.57,9.34-6.78,4.62-1.2,8.94-1.05,12.95.45,4.12,1.61,6.32,4.27,5.57,7.83-.76,3.61-2.49,7.81-4.14,12.88-1.66,5.07-3.24,10.27-4.74,15.59-4.02,13.66-6.33,23.3-6.93,28.92-1.51,9.04-4.72,12.38-7.53,14.61-5.23,4.15-8.92,5.5-14.69,5.5-1.66,0-3.34-.45-5.05-1.21-1.71-.75-3.16-1.83-4.37-3.24-2.81-3.41-2.95-7.88-1.66-13.71,2.39-10.8,5.67-24.86,12.2-41.73,3.11-8.34,6.6-14.43,9.04-19.13ZM668.7,702.56c-4.8,1.48-8.91.71-11.98-.9-3.06-1.61-4.85-3.54-5.35-5.8-.5-2.26.2-4.59,2.11-7,2.21-3.01,5.52-4.97,9.94-5.88,2.01-.2,6.34.04,7.68.3,3.26.64,5.22,1.87,6.48,4.37,1.18,2.34,1.53,4.72.38,7.53-1.16,2.81-4.06,5.77-9.27,7.38Z"/>
      <path d="M696.38,718.38c2.71.11,5.35.63,7.91,1.88,2.56,1.26,4.29,3.39,5.2,6.4,8.54-7.43,16.32-10.29,23.35-8.59,2.41.5,4.47,1.91,6.17,4.22,5.12-4.92,10.68-8.76,17.02-9.64,7.77-1.08,13.82,1.22,16.87,5.42,5.09,7.01,6.22,13.96,5.42,24.1-1.11,13.16-3.62,26.36-7.53,39.62-2.11,6.73-4.39,9.31-5.73,10.39-5.42,4.36-11.25,5.27-15.37,5.27s-7.43-1.26-10.24-3.77c-3.12-2.61-4.19-5.7-3.24-9.27.95-3.56,2.03-7.23,3.24-11,1.2-3.76,2.51-7.66,3.92-11.67,2.41-7.03,5.07-14.36,7.98-21.99-2.11,2.41-4.97,6.95-8.59,13.63-3.61,6.68-5.88,10.67-6.78,11.98-1.71,3.41-3.12,6.1-4.22,8.06-1.11,1.96-2.59,3.52-4.44,4.67-1.86,1.16-3.57,1.88-5.12,2.18-1.56.3-3.04.35-4.44.15-3.31-.5-5.67-1.91-7.08-4.22-.3-.8-.6-1.6-.9-2.41-.3-.8-.55-1.91-.75-3.32-.3-3.11.9-14.76.9-14.76-2.54,3.67-5.22,8.49-6.03,10.09-.8,1.61-1.66,3.39-2.56,5.35-.9,1.96-1.96,4.22-3.16,6.78-1.21,2.56-2.16,4.85-2.86,6.85-.71,2.01-1.56,3.97-2.56,5.88-4.52,7.83-13.24,13.92-23.8,9.49-4.98-2.09-7.67-5.5-2.71-25.61,4.63-18.78,8.7-30.49,10.24-35.7.55-1.86,3.01-9.14,3.62-10.54,1.2-3.32,6.09-10.34,16.27-9.94Z"/>
      <path d="M858.5,728.32c1.12,1.69,2.18,4.29,2.56,7.83.51,4.8-.3,11.5-1.51,20.04-2.31,17.27-3.57,27.57-3.77,30.88.2,3.51-1.96,5.92-6.48,7.23-3.92,1.2-7.83,1.15-11.75-.15-4.12-1.41-5.83-3.57-5.12-6.48-.8,1.51-1.61,2.59-2.41,3.24-.8.65-2.39,1.56-4.75,2.71-2.36,1.15-5.7,2.11-10.02,2.86-4.32.75-8.64.95-12.96.6-4.32-.35-8.26-1.41-11.83-3.17-3.56-1.76-5.95-4.49-7.15-8.21-2.31-7.23-2.01-16.42.9-27.57,2.01-7.33,5.62-13.81,10.85-19.43,6.03-6.43,12.85-11.75,20.49-15.97,5.72-3.11,11.23-5.13,16.57-5.57,8.42-.7,13.63,1.29,15.04,1.9,3.62,1.51,9.65,6.72,11.33,9.25ZM826.86,753.48c-8.13,3.32-14.36,7.38-18.68,12.2-4.72,5.32-4.42,8.99.9,11,4.62,1.2,7.98.45,10.09-2.26.9-1.2,1.71-2.71,2.41-4.52.7-1.81,4.47-13.91,5.27-16.42Z"/>
      <path d="M1026.41,728.32c1.12,1.69,2.18,4.29,2.56,7.83.51,4.8-.3,11.5-1.51,20.04-2.31,17.27-3.57,27.57-3.77,30.88.2,3.51-1.96,5.92-6.48,7.23-3.92,1.2-7.83,1.15-11.75-.15-4.12-1.41-5.83-3.57-5.12-6.48-.8,1.51-1.61,2.59-2.41,3.24-.8.65-2.39,1.56-4.75,2.71-2.36,1.15-5.7,2.11-10.02,2.86-4.32.75-8.64.95-12.96.6-4.32-.35-8.26-1.41-11.83-3.17s-5.95-4.49-7.15-8.21c-2.31-7.23-2.01-16.42.9-27.57,2.01-7.33,5.62-13.81,10.85-19.43,6.03-6.43,12.85-11.75,20.49-15.97,5.72-3.11,11.23-5.13,16.57-5.57,8.42-.7,13.63,1.29,15.04,1.9,3.62,1.51,9.65,6.72,11.33,9.25ZM994.77,753.48c-8.13,3.32-14.36,7.38-18.68,12.2-4.72,5.32-4.42,8.99.9,11,4.62,1.2,7.98.45,10.09-2.26.9-1.2,1.71-2.71,2.41-4.52.7-1.81,4.47-13.91,5.27-16.42Z"/>
      <path d="M1090.95,794c-3.93,3.2-8.56,5.65-13.93,7.31-5.37,1.66-10.77,2.54-16.2,2.64-5.42.1-10.49-.55-15.21-1.96-4.72-1.41-8.44-3.62-11.15-6.63-3.21-3.42-4.35-6.84-3.32-10.24,3.03-10.02,11.09-11.58,15.06-11.45,17.68.5,26.86-1.05,27.57-4.67-1.21-1.1-2.69-2.06-4.44-2.86-1.76-.8-3.55-1.59-5.35-2.41-9.57-4.36-12.25-10.04-13.26-13.86-.5-1.71-.71-3.47-.75-5.27-.16-7.17,3.01-13.2,8.14-17.93,1.4-1.3,3.16-2.71,5.27-4.22,2.11-1.51,5.27-2.96,9.49-4.37,4.22-1.41,8.41-2.43,12.58-3.09,4.17-.65,7.93-.88,11.3-.68,3.36.2,5.77,1.01,7.23,2.41,1.45,1.41,2.61,3.16,3.46,5.27.85,2.11,1.13,4.17.83,6.18-.8,4.52-4.37,8.42-11.15,9.34-10.69,1.45-12.4,3.77-13.11,4.07,7.73,5.32,13.11,10.54,16.12,15.67,4.12,7.03,5.84,15.33,1.81,23.5-3.18,6.43-6.08,9.25-11,13.26Z"/>
      <path d="M1157.3,794c-3.93,3.2-8.56,5.65-13.93,7.31-5.37,1.66-10.77,2.54-16.2,2.64-5.42.1-10.49-.55-15.21-1.96-4.72-1.41-8.44-3.62-11.15-6.63-3.21-3.42-4.35-6.84-3.32-10.24,3.03-10.02,11.09-11.58,15.06-11.45,17.68.5,26.86-1.05,27.57-4.67-1.21-1.1-2.69-2.06-4.44-2.86-1.76-.8-3.55-1.59-5.35-2.41-9.57-4.36-12.25-10.04-13.26-13.86-.5-1.71-.71-3.47-.75-5.27-.16-7.17,3.01-13.2,8.14-17.93,1.4-1.3,3.16-2.71,5.27-4.22,2.11-1.51,5.27-2.96,9.49-4.37,4.22-1.41,8.41-2.43,12.58-3.09,4.17-.65,7.93-.88,11.3-.68,3.36.2,5.77,1.01,7.23,2.41,1.45,1.41,2.61,3.16,3.46,5.27.85,2.11,1.13,4.17.83,6.18-.8,4.52-4.37,8.42-11.15,9.34-10.69,1.45-12.4,3.77-13.11,4.07,7.73,5.32,13.11,10.54,16.12,15.67,4.12,7.03,5.84,15.33,1.81,23.5-3.18,6.43-6.08,9.25-11,13.26Z"/>
      <path d="M1230.63,768.09c-1.91.9-3.77,1.61-5.57,2.11-1.81.5-3.92,1-6.33,1.51-6.33,1.31-10.9,2.06-13.71,2.26.3,1,1.62,2.65,4.52,3.61,1.74.58,3.79.03,5.95-.83,2.16-.85,4.42-1.66,6.78-2.41,2.36-.75,4.68-1.03,6.93-1.28,8.65-.97,12.3,8.09,13.26,10.09.95,2.01.7,3.92-.75,5.73-1.46,1.81-3.69,3.36-6.7,4.67-3.01,1.3-6.53,2.36-10.54,3.16-4.02.8-8.04,1.36-12.05,1.66-9.04.7-15.92,0-20.64-2.11-6.83-2.31-11.25-6.88-13.26-13.71-2.61-9.04-1.15-19.59,4.37-31.64,2.51-5.62,6.48-11.65,11.9-18.08,4.72-5.62,9.99-9.69,15.82-12.2,6.73-2.91,13.76-4.27,21.09-4.07,7.83.2,13.26,3.61,16.27,10.24,1.51,3.52,1.81,8.44.9,14.76-1.61,8.24-3.72,14.06-6.33,17.47-2.61,3.32-6.58,6.33-11.9,9.04ZM1221.89,744.29c-5.32-1.1-9.49,1.91-12.5,9.04-.9,1.91-1.61,3.92-2.11,6.03,3.41.4,7.03-1.51,10.85-5.73,1.4-1.71,2.46-3.44,3.16-5.2.7-1.76.9-3.14.6-4.14Z"/>
      <path d="M1290.7,725c1.22,1.4,1.81,3.37,1.81,5.88v.75c3.71-4.32,10.19-7.93,19.43-10.85,9.74-3.01,17.78-3.86,24.1-2.56,8.23,1.71,12.86,7.08,13.86,16.12.8,7.63-.95,17.32-5.27,29.08-1.41,3.01-2.49,5.45-3.24,7.31-.75,1.86-5.67,11.05-8.21,15.14-1.8,2.9-4.09,5.32-7.46,6.93-3.37,1.61-6.68,2.54-9.94,2.79-3.27.25-5.95-.25-8.06-1.51-2.11-1.26-2.71-3.24-1.81-5.95,2.31-6.23,9.03-26.42,10.39-30.13,1.84-5.01,1.71-8.34.6-9.64-.9-1-2.44-.82-4.67.45-3.83,2.19-9.29,10.75-14.31,19.88-1.41,2.51-2.79,5-4.14,7.46-1.36,2.46-2.48,4.83-3.77,6.85-4.66,7.31-7.37,13.75-16.04,16.57-7,2.27-13.56,1.51-19.28-.9-1.91-.8-3.56-1.8-4.52-3.31-2.77-4.36,1.66-20.34,11.9-47.15,3.62-9.44,7.11-19.3,11.98-23.35,4.74-3.94,14.36-2.48,16.65.15Z"/>
    </g>
  </g>
  <g>
    <path d="M795,324.75c10.26-2.56,20.79-5.13,31.58-7.69,10.81-2.57,25.81-6.59,45.05-12.09,19.22-5.49,43.48-12.08,72.78-19.77,29.3-7.69,63.36-16.85,102.17-27.47,31.21-8.89,55.41-14.68,72.62-17.38v-26.15c0-19.39-15.72-35.11-35.11-35.11h-124.77c6.3,6.89,10.14,14.45,11.38,22.7,1.79,11.82-2.34,23.91-12.4,36.28-10.05,12.38-26.12,22.2-48.56,22-24.81-.22-41.78-10.49-51.46-22.58-9.66-12.08-12.29-24.44-11.38-37.47.58-8.32,2.63-15.3,6.88-20.94h-101.51c-19.39,0-35.11,15.72-35.11,35.11v144.8c6.3-6.18,12.49-10.26,17.4-12.29,16.48-8.43,36.63-15.75,60.42-21.97Z"/>
    <path d="M791.71,548.59c.89-3.55,4.03-9.62,8.79-18.4,4.77-8.79,19.41-29.11,43.95-60.97,13.19-16.85,23.26-31.68,30.21-44.49-6.95,2.93-22.7,10.99-47.24,24.17-14.29,8.05-28.75,15.93-43.4,23.62-20.5,9.52-38.45,20.87-38.45,20.87,0,0-10.8,6.23-10.43,5.49-6.64,2.86-12.61,4.29-17.95,4.33v42.83c0,19.39,15.72,35.11,35.11,35.11h45.71c-5.17-6.7-10.41-16.01-6.29-32.54Z"/>
    <path d="M1009.23,489.54c-23.43-17.58-36.25-36.07-38.45-55.48-3.3,13.54-7.33,26.73-12.09,39.55-13.91,39.64-40.72,75.48-80.39,107.53h205.79c19.39,0,35.11-15.72,35.11-35.11v-7.27c-18.66-2.92-38.88-9.33-54.12-15.59-19.55-8.03-36.81-19.35-55.86-33.63Z"/>
    <path d="M1083.93,347.82l-24.71,9.89c.74,2.2,10.81,28.57,28.01,50.54,7.33,9.52,15.11,19.03,23.34,28.56,2.97,3.43,5.83,6.77,8.63,10.06v-113.54c-12.3,4.9-24.07,9.73-35.28,14.49Z"/>
  </g>
</svg>